<?xml version="1.0" encoding="UTF-8" standalone="no"?>
<svg
   xmlns:dc="http://purl.org/dc/elements/1.1/"
   xmlns:cc="http://creativecommons.org/ns#"
   xmlns:rdf="http://www.w3.org/1999/02/22-rdf-syntax-ns#"
   xmlns:svg="http://www.w3.org/2000/svg"
   xmlns="http://www.w3.org/2000/svg"
   xmlns:sodipodi="http://sodipodi.sourceforge.net/DTD/sodipodi-0.dtd"
   xmlns:inkscape="http://www.inkscape.org/namespaces/inkscape"
   viewBox="0 0 500 500"
   version="1.1"
   id="svg665"
   sodipodi:docname="img-smartCM-01.svg"
   inkscape:version="1.0.2-2 (e86c870879, 2021-01-15)">
  <metadata
     id="metadata669">
    <rdf:RDF>
      <cc:Work
         rdf:about="">
        <dc:format>image/svg+xml</dc:format>
        <dc:type
           rdf:resource="http://purl.org/dc/dcmitype/StillImage" />
      </cc:Work>
    </rdf:RDF>
  </metadata>
  <sodipodi:namedview
     pagecolor="#ffffff"
     bordercolor="#666666"
     borderopacity="1"
     objecttolerance="10"
     gridtolerance="10"
     guidetolerance="10"
     inkscape:pageopacity="0"
     inkscape:pageshadow="2"
     inkscape:window-width="1920"
     inkscape:window-height="991"
     id="namedview667"
     showgrid="false"
     inkscape:zoom="1.64"
     inkscape:cx="250"
     inkscape:cy="117.66811"
     inkscape:window-x="-9"
     inkscape:window-y="-9"
     inkscape:window-maximized="1"
     inkscape:current-layer="svg665" />
  <defs
     id="defs11">
    <clipPath
       id="freepik--clip-path--inject-11">
      <path
         d="M347.67,388.48l.12-44.21c.48-1.78.87-8.34,1.89-12.91,1.74-7.66-5.1-16.9-5.58-17.2-1.92-1.19-6-1.17-6-1.17s-4-4.57-7.57-6a17.87,17.87,0,0,0-7.66-1,36.61,36.61,0,0,0-9.1-5.51,7.49,7.49,0,0,0-7.66,1.44l-4.47,7a5.21,5.21,0,0,0,.61,6.52c2.14,2.11,4.88,1.12,6.26,1.12,1.91,0,2.63-2.16,2.63-2.16s.47,11.26,0,12.69h0c-.49,1.43-4.07,4.78-4.07,4.78l-12-15.83a114.51,114.51,0,0,1-10.77-17.78,8.5,8.5,0,0,0-1.35-2.09c-2.1-2.38-6.59-3.07-7.76,1.32a8.7,8.7,0,0,0,.19,4.24c5,14.78,11.38,25.95,17.19,37.59,3.45,6.91,2.17,6.83,3.89,9.95-.2.14-.1.4-.32.53-.84,3.36-1.43,6.73-2.28,10.09a46,46,0,0,0-3.83-12.18,27.5,27.5,0,0,0,.53-7.12,9.38,9.38,0,0,0-3-6.31,6.17,6.17,0,0,0-3.49-1.36,3.64,3.64,0,0,0-3.84,3.12,37.51,37.51,0,0,1-1,5.41,54.48,54.48,0,0,1-2.76,6.8c0,4.46,2.76,3.73,4.77,21.67,1.56,14,19.56,23.21,29.36,33.3l10.44,32.86A202.3,202.3,0,0,0,356,417.79Z"
         style="fill:#fff"
         id="path2" />
    </clipPath>
    <clipPath
       id="freepik--clip-path-2--inject-11">
      <path
         d="M237.2,336.42c-.43-2-3.24-1.69-3.24-1.69-9.45.56-10.72,15.37-10.72,15.37l-3.39,10.14-1-15.26.1-19.67s2.86-18.82,1.59-21.77a4.31,4.31,0,0,0-3.91-2.86c-5.5-1.38-5.82,6.55-5.82,6.55l-4.64,16.18-1.91,17.45-1.58-.84s-.75-18.52-.43-18.83,2.22-12.79,2.22-12.79,1.05-2.33,2.33-5.29a6.43,6.43,0,0,0,0-5.29c-2.23-4.54-6.87-2.42-7.83,0a70.39,70.39,0,0,1-3.8,7.19l-5.3,14.49c.2,3.28-1.68,19.46-1.68,19.46l-1.91-.87-3.07-9.5,2.34-9.73s5.07-5.6,4.22-8.88-5.18-2.32-5.18-2.32L175.88,318h-2.55l-6,7.61a48.27,48.27,0,0,0-1.38,25.29l1.38,6.43v41.56s-4.12,6.66-4.12,7.29c0,.29-1.7,5.54-4.07,12.09,10.37,6.1,19.3,10.82,25.63,13.31,3,1.18,6,2.3,9,3.37,3.8-10.67,8.24-22.08,10.69-24.75,4.86-5.28,14.38-15.44,14.38-15.44s10.81-17.37,12.08-23.14c1-4.74,3.58-13.35,4.46-16.3a5.77,5.77,0,0,0,.24-2.07c-.07-1.56-.22-4.59-.22-7.26C235.36,342.2,237.62,338.39,237.2,336.42Z"
         style="fill:#fff"
         id="path5" />
    </clipPath>
    <clipPath
       id="freepik--clip-path-3--inject-11">
      <path
         d="M450,317.12a71.82,71.82,0,0,1-1,11.86c-2.9,17.31-12,29.93-22.76,29.93a13.68,13.68,0,0,1-2.86-.3c-11.75-2.49-20.86-20.11-20.86-41.49,0-23.08,10.62-31.25,23.72-31.25S450,294,450,317.12Z"
         style="fill:#fff;stroke:#263238;stroke-miterlimit:10"
         id="path8" />
    </clipPath>
  </defs>
  <g
     id="freepik--background-simple--inject-11"
     transform="translate(0,-46)">
    <path
       d="m 481.72,245.83 a 119.56,119.56 0 0 1 -3.33,28.48 c -0.75,3.06 -1.65,6.11 -2.68,9.11 -0.3,0.86 -0.6,1.72 -0.92,2.57 -0.26,0.7 -0.53,1.4 -0.8,2.09 l -0.23,0.57 c -0.29,0.72 -0.58,1.44 -0.89,2.15 l -0.15,0.35 c -0.3,0.7 -0.61,1.4 -0.92,2.09 l -0.42,0.91 c -0.28,0.62 -0.57,1.23 -0.87,1.84 -0.3,0.61 -0.63,1.29 -0.95,1.93 -0.12,0.23 -0.23,0.46 -0.35,0.68 l -0.85,1.65 -0.69,1.27 q -1.59,2.94 -3.33,5.8 c -0.47,0.78 -0.95,1.56 -1.44,2.33 -0.11,0.19 -0.23,0.38 -0.35,0.57 q -0.84,1.32 -1.71,2.64 c -0.47,0.71 -0.94,1.42 -1.43,2.13 l -1.27,1.85 -0.28,0.39 c -0.44,0.64 -0.9,1.28 -1.35,1.92 -0.56,0.79 -1.13,1.56 -1.7,2.34 -0.12,0.16 -0.23,0.32 -0.35,0.47 -0.65,0.89 -1.32,1.77 -2,2.64 -0.4,0.52 -0.8,1 -1.21,1.56 -0.72,0.95 -1.46,1.89 -2.21,2.83 -0.75,0.94 -1.43,1.79 -2.16,2.68 l -0.24,0.29 c -0.72,0.89 -1.44,1.77 -2.18,2.65 -0.21,0.27 -0.44,0.54 -0.66,0.8 -0.67,0.81 -1.35,1.62 -2,2.42 q -2.94,3.48 -5.93,6.9 -6.08,7 -12.41,13.89 c -3.51,3.8 -7.07,7.58 -10.7,11.29 -17.42,17.89 -36.28,34.58 -56.79,47.88 -2.55,1.65 -5.12,3.26 -7.72,4.79 l -2.85,1.67 -0.49,0.28 c -1,0.56 -2,1.11 -2.95,1.65 -0.95,0.54 -2,1.11 -3,1.64 l -1.38,0.72 q -3,1.56 -6,3 c -1.09,0.52 -2.18,1 -3.28,1.51 -1.1,0.51 -2,0.91 -3.05,1.35 l -1.25,0.53 c -0.93,0.4 -1.87,0.78 -2.81,1.16 q -2.72,1.1 -5.48,2.09 l -2.12,0.76 -1.2,0.41 -2,0.65 -1.72,0.55 h -0.06 q -1.69,0.53 -3.39,1 c -1.79,0.52 -3.58,1 -5.38,1.46 -1.19,0.3 -2.38,0.58 -3.58,0.85 -1.2,0.27 -2.26,0.5 -3.4,0.74 l -0.27,0.05 c -1.18,0.24 -2.37,0.47 -3.56,0.68 l -1.82,0.31 -1.84,0.29 c -0.55,0.09 -1.11,0.17 -1.66,0.24 l -2,0.28 a 154.51,154.51 0 0 1 -21.37,1.21 h -1.28 a 176.84,176.84 0 0 1 -19.35,-1.45 l -1.41,-0.19 -2.43,-0.34 -1.89,-0.3 c -2.67,-0.42 -5.32,-0.9 -8,-1.44 -0.59,-0.11 -1.17,-0.23 -1.75,-0.36 -1.78,-0.37 -3.57,-0.77 -5.34,-1.19 -1.19,-0.28 -2.37,-0.57 -3.55,-0.87 l -1.77,-0.46 -1.77,-0.47 c -2.35,-0.63 -4.69,-1.31 -7,-2 q -4.06,-1.23 -8.08,-2.61 l -2.92,-1 c -3,-1.07 -6,-2.2 -9,-3.37 l -1.63,-0.66 -1.31,-0.57 -0.88,-0.4 c -1.94,-0.88 -4,-1.91 -6.32,-3.07 l -1.16,-0.6 c -1.39,-0.73 -2.84,-1.5 -4.33,-2.32 -3.13,-1.72 -6.48,-3.62 -10,-5.69 -40,-23.54 -101.26,-67.72 -115.64,-84.47 -0.73,-0.85 -1.44,-1.71 -2.15,-2.58 -0.55,-0.68 -1.1,-1.37 -1.63,-2.07 -0.53,-0.7 -1,-1.26 -1.44,-1.91 -0.44,-0.65 -0.83,-1.13 -1.23,-1.71 -0.4,-0.58 -0.76,-1.07 -1.13,-1.61 l -0.08,-0.12 c -0.45,-0.67 -0.9,-1.34 -1.34,-2 -0.44,-0.66 -0.84,-1.3 -1.24,-2 -0.2,-0.31 -0.39,-0.63 -0.58,-0.95 q -0.67,-1.11 -1.32,-2.22 v 0 c -0.46,-0.82 -0.92,-1.64 -1.37,-2.47 -0.78,-1.45 -1.53,-2.91 -2.23,-4.39 l -0.54,-1.15 a 91.47,91.47 0 0 1 -3.74,-9.29 c -0.39,-1.1 -0.74,-2.21 -1.08,-3.32 -0.43,-1.43 -0.82,-2.87 -1.18,-4.31 -0.07,-0.29 -0.14,-0.57 -0.2,-0.86 -0.18,-0.75 -0.35,-1.51 -0.5,-2.27 -0.23,-1.06 -0.42,-2.12 -0.6,-3.19 0,-0.26 -0.09,-0.52 -0.12,-0.78 -0.09,-0.55 -0.17,-1.1 -0.24,-1.66 -0.07,-0.56 -0.17,-1.33 -0.24,-2 0,-0.23 -0.05,-0.45 -0.07,-0.67 -0.06,-0.57 -0.1,-1.14 -0.15,-1.7 a 0.61,0.61 0 0 0 0,-0.14 c -0.05,-0.68 -0.09,-1.35 -0.11,-2 a 1.28,1.28 0 0 1 0,-0.19 q 0,-1.06 -0.06,-2.13 v -2 c 0,-1 0.05,-2.09 0.11,-3.13 0,-0.68 0.09,-1.36 0.15,-2 0.12,-1.34 0.28,-2.68 0.48,-4 0.1,-0.68 0.21,-1.36 0.34,-2 q 0.36,-2 0.87,-4.05 a 69.72,69.72 0 0 1 3.45,-10.25 72.21,72.21 0 0 1 3.59,-7.34 c 0.1,-0.2 0.22,-0.41 0.34,-0.61 5.39,-9.49 12.72,-17.91 21,-25.71 0.88,-0.84 1.77,-1.66 2.68,-2.47 0.91,-0.81 1.91,-1.72 2.88,-2.58 l 0.18,-0.16 q 2.32,-2 4.71,-4 c 2.45,-2.05 4.94,-4.06 7.45,-6.06 l 0.25,-0.2 c 2.15,-1.7 4.32,-3.39 6.48,-5.07 3.4,-2.63 6.81,-5.25 10.15,-7.86 l 2.64,-2.07 c 1,-0.76 1.92,-1.52 2.87,-2.28 a 213.69,213.69 0 0 0 23.86,-22.64 q 2.08,-2.28 4.14,-4.59 c 0.65,-0.74 1.3,-1.47 1.94,-2.21 9.13,-10.4 17.62,-20.92 27.07,-30.85 q 3.38,-3.55 6.92,-7 c 2,-1.91 4,-3.79 6.14,-5.63 2.35,-2.27 4.78,-4.38 7.35,-6.38 3.55,-2.76 7.29,-5.41 11.29,-7.94 1,-0.63 2,-1.24 2.93,-1.84 99.71,-62 173.1,-41.74 222.06,0 Q 408.85,96 414,101 c 2.08,2 4.09,4.09 6,6.19 0.22,0.22 0.42,0.45 0.63,0.69 q 2.06,2.19 4,4.41 l 1.15,1.32 c 0.57,0.66 1.14,1.32 1.7,2 0.56,0.68 1.37,1.63 2.05,2.45 l 1.27,1.56 c 2.73,3.36 5.33,6.77 7.81,10.2 0.5,0.68 1,1.37 1.48,2.06 3.42,4.8 6.6,9.65 9.55,14.47 l 1.25,2.06 q 0.63,1 1.23,2.07 l 1.19,2.05 c 0.4,0.69 0.79,1.37 1.17,2.05 l 1.14,2 c 0.39,0.68 0.76,1.36 1.11,2 l 1.09,2 c 0.36,0.67 0.71,1.35 1.06,2 l 1,2 1,2 q 2,4 3.73,7.82 c 0.58,1.3 1.16,2.59 1.71,3.86 2.49,5.72 4.62,11.19 6.36,16.28 a 0.19,0.19 0 0 1 0,0.07 c 0.17,0.49 0.33,1 0.49,1.45 0.16,0.45 0.33,1 0.49,1.48 0.16,0.48 0.25,0.75 0.36,1.13 0.18,0.56 0.36,1.12 0.53,1.69 0.17,0.57 0.37,1.22 0.54,1.83 0.33,1.12 0.65,2.24 1,3.37 0.26,0.95 0.51,1.9 0.75,2.86 0,0.18 0.1,0.35 0.14,0.53 0.04,0.18 0.07,0.3 0.11,0.45 0.14,0.56 0.28,1.12 0.41,1.69 0.36,1.49 0.69,3 1,4.49 0.17,0.82 0.34,1.63 0.49,2.45 l 0.09,0.46 q 0.23,1.15 0.42,2.31 c 0.18,1 0.35,2.07 0.5,3.1 0.13,0.78 0.24,1.57 0.35,2.36 0,0.11 0,0.23 0.05,0.35 0.07,0.52 0.14,1 0.2,1.58 0.06,0.58 0.11,0.88 0.16,1.31 0.18,1.59 0.34,3.17 0.47,4.76 l 0.09,1.08 0.12,1.81 c 0,0.67 0.08,1.34 0.11,2 0,0.52 0.05,1 0.07,1.55 0,0.76 0.05,1.53 0.06,2.29 0.01,0.76 0.04,1.95 0.04,2.84 z"
       style="fill:#5e66d6"
       id="path13" />
    <g
       style="opacity:0.7"
       id="g17">
      <path
         d="m 481.72,245.83 a 119.56,119.56 0 0 1 -3.33,28.48 c -0.75,3.06 -1.65,6.11 -2.68,9.11 -0.3,0.86 -0.6,1.72 -0.92,2.57 -0.26,0.7 -0.53,1.4 -0.8,2.09 l -0.23,0.57 c -0.29,0.72 -0.58,1.44 -0.89,2.15 l -0.15,0.35 c -0.3,0.7 -0.61,1.4 -0.92,2.09 l -0.42,0.91 c -0.28,0.62 -0.57,1.23 -0.87,1.84 -0.3,0.61 -0.63,1.29 -0.95,1.93 -0.12,0.23 -0.23,0.46 -0.35,0.68 l -0.85,1.65 -0.69,1.27 q -1.59,2.94 -3.33,5.8 c -0.47,0.78 -0.95,1.56 -1.44,2.33 -0.11,0.19 -0.23,0.38 -0.35,0.57 q -0.84,1.32 -1.71,2.64 c -0.47,0.71 -0.94,1.42 -1.43,2.13 l -1.27,1.85 -0.28,0.39 c -0.44,0.64 -0.9,1.28 -1.35,1.92 -0.56,0.79 -1.13,1.56 -1.7,2.34 -0.12,0.16 -0.23,0.32 -0.35,0.47 -0.65,0.89 -1.32,1.77 -2,2.64 -0.4,0.52 -0.8,1 -1.21,1.56 -0.72,0.95 -1.46,1.89 -2.21,2.83 -0.75,0.94 -1.43,1.79 -2.16,2.68 l -0.24,0.29 c -0.72,0.89 -1.44,1.77 -2.18,2.65 -0.21,0.27 -0.44,0.54 -0.66,0.8 -0.67,0.81 -1.35,1.62 -2,2.42 q -2.94,3.48 -5.93,6.9 -6.08,7 -12.41,13.89 c -3.51,3.8 -7.07,7.58 -10.7,11.29 -17.42,17.89 -36.28,34.58 -56.79,47.88 -2.55,1.65 -5.12,3.26 -7.72,4.79 l -2.85,1.67 -0.49,0.28 c -1,0.56 -2,1.11 -2.95,1.65 -0.95,0.54 -2,1.11 -3,1.64 l -1.38,0.72 q -3,1.56 -6,3 c -1.09,0.52 -2.18,1 -3.28,1.51 -1.1,0.51 -2,0.91 -3.05,1.35 l -1.25,0.53 c -0.93,0.4 -1.87,0.78 -2.81,1.16 q -2.72,1.1 -5.48,2.09 l -2.12,0.76 -1.2,0.41 -2,0.65 -1.72,0.55 h -0.06 q -1.69,0.53 -3.39,1 c -1.79,0.52 -3.58,1 -5.38,1.46 -1.19,0.3 -2.38,0.58 -3.58,0.85 -1.2,0.27 -2.26,0.5 -3.4,0.74 l -0.27,0.05 c -1.18,0.24 -2.37,0.47 -3.56,0.68 l -1.82,0.31 -1.84,0.29 c -0.55,0.09 -1.11,0.17 -1.66,0.24 l -2,0.28 a 154.51,154.51 0 0 1 -21.37,1.21 h -1.28 a 176.84,176.84 0 0 1 -19.35,-1.45 l -1.41,-0.19 -2.43,-0.34 -1.89,-0.3 c -2.67,-0.42 -5.32,-0.9 -8,-1.44 -0.59,-0.11 -1.17,-0.23 -1.75,-0.36 -1.78,-0.37 -3.57,-0.77 -5.34,-1.19 -1.19,-0.28 -2.37,-0.57 -3.55,-0.87 l -1.77,-0.46 -1.77,-0.47 c -2.35,-0.63 -4.69,-1.31 -7,-2 q -4.06,-1.23 -8.08,-2.61 l -2.92,-1 c -3,-1.07 -6,-2.2 -9,-3.37 l -1.63,-0.66 -1.31,-0.57 -0.88,-0.4 c -1.94,-0.88 -4,-1.91 -6.32,-3.07 l -1.16,-0.6 c -1.39,-0.73 -2.84,-1.5 -4.33,-2.32 -3.13,-1.72 -6.48,-3.62 -10,-5.69 -40,-23.54 -101.26,-67.72 -115.64,-84.47 -0.73,-0.85 -1.44,-1.71 -2.15,-2.58 -0.55,-0.68 -1.1,-1.37 -1.63,-2.07 -0.53,-0.7 -1,-1.26 -1.44,-1.91 -0.44,-0.65 -0.83,-1.13 -1.23,-1.71 -0.4,-0.58 -0.76,-1.07 -1.13,-1.61 l -0.08,-0.12 c -0.45,-0.67 -0.9,-1.34 -1.34,-2 -0.44,-0.66 -0.84,-1.3 -1.24,-2 -0.2,-0.31 -0.39,-0.63 -0.58,-0.95 q -0.67,-1.11 -1.32,-2.22 v 0 c -0.46,-0.82 -0.92,-1.64 -1.37,-2.47 -0.78,-1.45 -1.53,-2.91 -2.23,-4.39 l -0.54,-1.15 a 91.47,91.47 0 0 1 -3.74,-9.29 c -0.39,-1.1 -0.74,-2.21 -1.08,-3.32 -0.43,-1.43 -0.82,-2.87 -1.18,-4.31 -0.07,-0.29 -0.14,-0.57 -0.2,-0.86 -0.18,-0.75 -0.35,-1.51 -0.5,-2.27 -0.23,-1.06 -0.43,-2.12 -0.6,-3.19 0,-0.26 -0.09,-0.52 -0.12,-0.78 -0.09,-0.55 -0.17,-1.1 -0.24,-1.66 -0.07,-0.56 -0.17,-1.33 -0.24,-2 0,-0.23 -0.05,-0.45 -0.07,-0.67 -0.06,-0.57 -0.1,-1.14 -0.15,-1.7 a 0.61,0.61 0 0 0 0,-0.14 c -0.05,-0.68 -0.09,-1.35 -0.11,-2 a 1.28,1.28 0 0 1 0,-0.19 q 0,-1.06 -0.06,-2.13 c 0,-1.73 0,-3.45 0.11,-5.17 0,-0.68 0.09,-1.36 0.15,-2 0.12,-1.34 0.28,-2.68 0.48,-4 0.1,-0.68 0.21,-1.36 0.34,-2 q 0.36,-2 0.87,-4.05 a 69.72,69.72 0 0 1 3.45,-10.25 72.21,72.21 0 0 1 3.59,-7.34 c 0.1,-0.2 0.22,-0.41 0.34,-0.61 5.39,-9.49 12.72,-17.91 21,-25.71 l 1.42,-1.33 1.26,-1.14 c 1,-0.87 1.91,-1.72 2.88,-2.58 l 0.18,-0.16 q 2.32,-2 4.71,-4 c 2.45,-2.05 4.94,-4.06 7.45,-6.06 l 0.25,-0.2 c 2.15,-1.7 4.32,-3.39 6.48,-5.07 l 3.26,-2.52 c 2.31,-1.78 4.62,-3.56 6.89,-5.34 l 2.64,-2.07 c 1,-0.76 1.92,-1.52 2.87,-2.28 a 213.69,213.69 0 0 0 23.86,-22.64 q 2.08,-2.28 4.14,-4.59 c 0.65,-0.74 1.3,-1.47 1.94,-2.21 9.13,-10.4 17.62,-20.92 27.07,-30.85 q 3.38,-3.55 6.92,-7 c 2,-1.91 4,-3.79 6.14,-5.63 2.35,-2.23 4.78,-4.34 7.35,-6.34 3.55,-2.76 7.29,-5.41 11.29,-7.94 1,-0.63 2,-1.24 2.93,-1.84 99.71,-62 173.1,-41.74 222.06,0 Q 408.85,96 414,101 c 2.08,2 4.09,4.09 6,6.19 0.22,0.22 0.42,0.45 0.63,0.69 q 2.06,2.19 4,4.41 l 1.15,1.32 c 0.57,0.66 1.14,1.32 1.7,2 0.56,0.68 1.37,1.63 2.05,2.45 l 1.27,1.56 c 2.73,3.36 5.33,6.77 7.81,10.2 0.5,0.68 1,1.37 1.48,2.06 3.42,4.8 6.6,9.65 9.55,14.47 l 1.25,2.06 q 0.63,1 1.23,2.07 l 1.19,2.05 c 0.4,0.69 0.79,1.37 1.17,2.05 l 1.14,2 c 0.39,0.68 0.76,1.36 1.11,2 l 1.09,2 c 0.36,0.67 0.71,1.35 1.06,2 l 1,2 1,2 q 2,4 3.73,7.82 c 0.58,1.3 1.16,2.59 1.71,3.86 2.49,5.72 4.62,11.19 6.36,16.28 a 0.19,0.19 0 0 1 0,0.07 c 0.17,0.49 0.33,1 0.49,1.45 0.16,0.45 0.33,1 0.49,1.48 0.16,0.48 0.25,0.75 0.36,1.13 0.18,0.56 0.36,1.12 0.53,1.69 0.17,0.57 0.37,1.22 0.54,1.83 0.33,1.12 0.65,2.24 1,3.37 0.26,0.95 0.51,1.9 0.75,2.86 0,0.18 0.1,0.35 0.14,0.53 0.04,0.18 0.07,0.3 0.11,0.45 0.14,0.56 0.28,1.12 0.41,1.69 0.36,1.49 0.69,3 1,4.49 0.17,0.82 0.34,1.63 0.49,2.45 l 0.09,0.46 q 0.23,1.15 0.42,2.31 c 0.18,1 0.35,2.07 0.5,3.1 0.13,0.78 0.24,1.57 0.35,2.36 0,0.11 0,0.23 0.05,0.35 0.07,0.52 0.14,1 0.2,1.58 0.06,0.58 0.11,0.88 0.16,1.31 0.18,1.59 0.34,3.17 0.47,4.76 l 0.09,1.08 0.12,1.81 c 0,0.67 0.08,1.34 0.11,2 0,0.52 0.05,1 0.07,1.55 0,0.76 0.05,1.53 0.06,2.29 0.01,0.76 0.04,1.95 0.04,2.84 z"
         style="fill:#ffffff"
         id="path15" />
    </g>
  </g>
  <g
     id="freepik--Plant--inject-11"
     transform="translate(0,-46)">
    <path
       d="m 32.14,262.26 c -0.2,-0.13 -0.15,-0.22 0,0 z"
       style="opacity:0.2;fill:#263238"
       id="path20" />
    <path
       d="m 125.67,253.44 a 18.32,18.32 0 0 1 -12.57,14.47 l -2.48,0.81 c -8.92,12.63 -24.56,18 -37.89,10.19 l -3.9,-2.29 -10.92,-13 h -0.13 c -3.46,0.72 -7.37,0.19 -9.93,-2.25 a 3.4,3.4 0 1 1 -5.51,-3.25 c -2.2,1.94 -5.6,1.05 -7.72,-1.07 a 66.7,66.7 0 0 1 2,-17.29 69.72,69.72 0 0 1 3.38,-10.2 72.21,72.21 0 0 1 3.59,-7.34 c 0.1,-0.2 0.22,-0.41 0.34,-0.61 a 87.87,87.87 0 0 1 6.65,-10 l 1.26,-1.14 c 1,-0.87 1.91,-1.72 2.88,-2.58 l 0.18,-0.16 q 2.32,-2 4.71,-4 c 2.45,-2.05 4.94,-4.06 7.45,-6.06 l 0.25,-0.2 c 2.15,-1.7 4.32,-3.39 6.48,-5.07 l 3.26,-2.52 a 8.94,8.94 0 0 1 1.92,0.45 c 2.67,0.93 3.13,3.38 5,5.06 2.46,2.25 4.82,-1.53 8.61,-1.41 11.65,0.36 7.13,12.31 12.82,10.81 24.57,-6.48 20.44,24.95 9.76,31.85 6.3,5.17 11.73,8.62 10.51,16.8 z"
       style="opacity:0.2"
       id="path22" />
    <ellipse
       cx="72.839996"
       cy="242.39"
       rx="41.439999"
       ry="40.93"
       style="fill:#ffffff;stroke:#263238;stroke-miterlimit:10"
       id="ellipse24" />
    <ellipse
       cx="72.839996"
       cy="240.73"
       rx="37.779999"
       ry="37.32"
       style="fill:#263238;stroke:#ffffff;stroke-miterlimit:10"
       id="ellipse26" />
    <path
       d="m 32.24,255.44 c -2.38,1.48 -3.06,6.45 -1.19,8.61 1.87,2.16 5.46,0.49 6.19,-2.87 a 1.12,1.12 0 0 0 2,0.28 2.3,2.3 0 0 0 0.14,-2.1 c -0.18,-0.15 -0.11,-0.26 0,0 1.22,1 3.32,-0.09 3.61,-2.16 -0.89,5.5 4.11,10.3 7.79,7.5 -1.09,2.34 0.34,5.41 2.24,6 1.9,0.59 3.94,-0.53 5.76,-1.77 1.82,-1.24 3.69,-2.67 5.68,-2.76 1.73,-0.08 3.34,0.9 5,1.48 5.26,1.83 11.42,-0.6 15.44,-6.11 2.66,4.55 9.21,2.87 11,-2.79 0.37,2.65 2.18,4.67 4.21,4.69 2.03,0.02 4.06,-1.94 4.76,-4.57 v 0 c 0,2.51 2.28,3.74 3.88,2.13 a 9.38,9.38 0 0 0 2.31,-8.87 c 2.72,-0.11 5.36,-3.27 5.77,-6.93 0.41,-3.66 -1.43,-7.34 -4.06,-8.06 4.52,-1.87 8,-8 8.22,-14.29 0.22,-6.29 -3.06,-12.09 -7.49,-13.55 a 4.7,4.7 0 0 0 -5.08,1.06 c -0.53,-3.57 -2.15,-6.76 -4.54,-8.36 -3.8,-2.57 -9.09,-0.81 -11.92,4 a 9.41,9.41 0 0 0 0.22,-8.38 c -1.26,-2.33 -3.76,-3.27 -5.88,-2.17 -0.45,-3.83 -3.41,-6.55 -6.3,-5.81 -2.89,0.74 -5.22,4.84 -5,8.71 -0.27,-3.12 -4,-3.89 -5.28,-1.27 0.11,0.24 -0.06,0.1 0,0 -1.84,-3.86 -5.58,-5.84 -9.05,-4.71 -3.69,1.21 -6.79,5.84 -7.27,10.9 a 6.51,6.51 0 0 0 -9,0.25 c -2.73,2.46 -4.31,7.14 -3.83,11.32 -2.87,-2.83 -7.7,-1.28 -9.67,3.1 -1.97,4.38 -0.62,10.58 2.71,12.42 -2.29,0.35 -4.31,3.39 -4.31,6.47 0,3.08 2,5.72 4.33,5.64 -2.32,0.2 -4.51,2.94 -4.85,6.05 -0.34,3.11 1.22,6.24 3.46,6.92 z"
       style="fill:#5e66d6"
       id="path28" />
    <g
       style="opacity:0.2"
       id="g48">
      <path
         d="m 70.33,241.1 a 4.32,4.32 0 0 0 -4,-1 4.81,4.81 0 0 0 -3,3.72 c -0.32,1.81 0.52,3.81 1.9,4.15 1.69,0.42 3.42,-1.47 5.14,-1.26 a 11.1,11.1 0 0 1 1.77,0.58 c 2.47,0.69 5,-1.53 7.06,-3.61 a 9.82,9.82 0 0 0 2,-2.49 4.06,4.06 0 0 0 0.26,-3.29 c -0.6,-1.35 -2.1,-1.46 -3.36,-1.2 a 13.44,13.44 0 0 0 -7,4.1 c 0.07,-0.51 0.14,-1 0.22,-1.52 z"
         style="fill:#ffffff"
         id="path30" />
      <path
         d="m 106.45,236.17 a 5.69,5.69 0 0 0 -2.14,-1.32 2.06,2.06 0 0 0 -2.26,1 3.28,3.28 0 0 0 0.56,3.76 5.21,5.21 0 0 0 3.13,1.17 c 1.14,0.15 2.58,0.12 3.17,-1.21 a 2.88,2.88 0 0 0 -0.48,-2.88 4.93,4.93 0 0 0 -2.22,-1.27 z"
         style="fill:#ffffff"
         id="path32" />
      <path
         d="m 49.91,215.74 a 11,11 0 0 0 -4.74,7.32 c -0.18,0.94 -0.18,2.12 0.46,2.58 a 1.67,1.67 0 0 0 1.55,0 l 6.64,-2.4 a 10,10 0 0 0 -3,2.19 5,5 0 0 0 -1.2,3.92 2.88,2.88 0 0 0 3,2.44 6.44,6.44 0 0 0 3.67,-2.08 6.75,6.75 0 0 0 2.38,-4.45 c 0,-1.8 -1.7,-3.37 -2.81,-2.15 a 24.48,24.48 0 0 0 7.14,-4.59 8.59,8.59 0 0 0 2.09,-2.58 4.33,4.33 0 0 0 0.27,-3.44 c -2.16,-5.09 -5.15,2.75 -6.55,3.52 -2.63,1.46 -5.53,-2.26 -8.9,-0.28 z"
         style="fill:#ffffff"
         id="path34" />
      <path
         d="m 39.23,238.69 a 3.17,3.17 0 0 0 0.53,2.88 1.3,1.3 0 0 0 2.12,-0.68 8.1,8.1 0 0 0 -4,3.09 c -1,1.64 -0.77,4.39 0.69,4.91 0.91,0.33 1.89,-0.31 2.75,-0.95 a 56.84,56.84 0 0 0 6.93,-6.15 3.16,3.16 0 0 0 2.48,4.14 c 1.64,0.08 3.2,-1.14 4.63,-2.32 1.75,-1.45 3.77,-3.61 3.36,-6.09 a 3,3 0 0 0 -4.23,-2.26 c -1.7,0.75 -3,2.56 -4.21,4.3 1,-1.78 -0.31,-4.25 -1.93,-4.43 -1.62,-0.18 -3.16,1.14 -4.17,2.68 1.86,-1.4 2.33,-4.77 -0.12,-5 -1.62,-0.16 -4.41,4.19 -4.83,5.88 z"
         style="fill:#ffffff"
         id="path36" />
      <path
         d="m 89.77,228.09 c -1.38,-0.58 -3.14,0.68 -3.54,2.53 -0.4,1.85 0.63,3.87 2.08,4.06 a 4.43,4.43 0 0 0 -2.83,2 3.56,3.56 0 0 0 -0.63,2.14 2,2 0 0 0 1.94,1.8 5.36,5.36 0 0 0 2.59,-1.08 4.38,4.38 0 0 0 -2.55,1.09 2.57,2.57 0 0 0 -0.43,3 c 0.52,0.64 1.39,0.47 2.11,0.17 a 11.31,11.31 0 0 0 4.38,-3.37 3.53,3.53 0 0 0 3.59,1.73 3.47,3.47 0 0 0 2.14,-3.9 2.51,2.51 0 0 0 -2.2,-1.94 5.77,5.77 0 0 0 -2.88,0.75 7.41,7.41 0 0 0 2.37,-3.38 c 0.37,-1.44 -0.35,-3.29 -1.51,-3.11 -1.31,0.21 -2,2.52 -3.06,3.4 -1.25,-1.43 1.19,-4.74 -1.57,-5.89 z"
         style="fill:#ffffff"
         id="path38" />
      <path
         d="m 66.36,222.6 c -1.5,1.37 -2.07,3.93 -2,6.21 0.06,2.52 0.91,5.16 2.71,6.06 2.36,1.18 5.39,-1.53 5.89,-4.83 a 8.08,8.08 0 0 0 -3.41,-7.92 2.87,2.87 0 0 0 -3.19,0.48 z"
         style="fill:#ffffff"
         id="path40" />
      <path
         d="m 83.08,218.86 0.6,0.64 a 2.62,2.62 0 0 0 -4.34,-0.17 4.75,4.75 0 0 0 -0.12,5.56 2.71,2.71 0 0 0 4.36,-0.66 4,4 0 0 0 5.23,-1.57 c 1.25,-1.93 1,-5.17 -0.59,-6.26 -1.59,-1.09 -4.18,0.85 -4,3.25 l -0.7,-1 z"
         style="fill:#ffffff"
         id="path42" />
      <path
         d="m 101.41,221.52 a 13.71,13.71 0 0 0 -2.93,5.27 c -0.47,2.07 0.19,4.62 1.79,5 1.6,0.38 3.12,-1.35 4.07,-3.15 a 8.06,8.06 0 0 0 1.07,-5.4 c -0.44,-1.77 -2.45,-2.71 -3.49,-1.26 z"
         style="fill:#ffffff"
         id="path44" />
      <path
         d="m 75.12,210.83 a 2.3,2.3 0 0 0 -3.72,-1.08 5.11,5.11 0 0 0 -1.26,5 3.93,3.93 0 0 0 3.35,2.91 3.69,3.69 0 0 0 3.61,-4.09 3.21,3.21 0 0 0 3.43,1.46 8.94,8.94 0 0 0 3.63,-1.94 c 1.54,-1.21 3.19,-3 3.07,-5.25 a 3.2,3.2 0 0 0 -2.8,-3.12 5.13,5.13 0 0 0 -3.86,2.05 c -0.85,0.95 -1.56,2.12 -2.48,3 -0.92,0.88 -2.15,1.35 -3.1,0.75 z"
         style="fill:#ffffff"
         id="path46" />
    </g>
  </g>
  <g
     id="freepik--Keyboard--inject-11"
     transform="translate(0,-46)">
    <rect
       x="145.67999"
       y="272.76001"
       width="230.67"
       height="97.150002"
       style="fill:#5e66d6;stroke:#263238;stroke-linecap:round;stroke-linejoin:round"
       id="rect51" />
    <rect
       x="150.5"
       y="278.64001"
       width="21.700001"
       height="12.01"
       style="fill:#ffffff;stroke:#263238;stroke-miterlimit:10"
       id="rect53" />
    <rect
       x="336.82999"
       y="337.20001"
       width="34.18"
       height="12.01"
       style="fill:#ffffff;stroke:#263238;stroke-miterlimit:10"
       id="rect55" />
    <rect
       x="349.91"
       y="293.64001"
       width="21.1"
       height="12.01"
       style="fill:#ffffff;stroke:#263238;stroke-miterlimit:10"
       id="rect57" />
    <rect
       x="150.5"
       y="322.39001"
       width="21.700001"
       height="12.01"
       style="fill:#ffffff;stroke:#263238;stroke-miterlimit:10"
       id="rect59" />
    <rect
       x="150.5"
       y="307.92001"
       width="17.57"
       height="12.01"
       style="fill:#ffffff;stroke:#263238;stroke-miterlimit:10"
       id="rect61" />
    <rect
       x="150.5"
       y="293.28"
       width="12.01"
       height="12.01"
       style="fill:#ffffff;stroke:#263238;stroke-miterlimit:10"
       id="rect63" />
    <rect
       x="165.84"
       y="293.28"
       width="12.01"
       height="12.01"
       style="fill:#ffffff;stroke:#263238;stroke-miterlimit:10"
       id="rect65" />
    <rect
       x="181.17"
       y="293.28"
       width="12.01"
       height="12.01"
       style="fill:#ffffff;stroke:#263238;stroke-miterlimit:10"
       id="rect67" />
    <rect
       x="196.5"
       y="293.28"
       width="12.01"
       height="12.01"
       style="fill:#ffffff;stroke:#263238;stroke-miterlimit:10"
       id="rect69" />
    <rect
       x="211.84"
       y="293.28"
       width="12.01"
       height="12.01"
       style="fill:#ffffff;stroke:#263238;stroke-miterlimit:10"
       id="rect71" />
    <rect
       x="227.17"
       y="293.28"
       width="12.01"
       height="12.01"
       style="fill:#ffffff;stroke:#263238;stroke-miterlimit:10"
       id="rect73" />
    <rect
       x="242.5"
       y="293.28"
       width="12.01"
       height="12.01"
       style="fill:#ffffff;stroke:#263238;stroke-miterlimit:10"
       id="rect75" />
    <rect
       x="257.84"
       y="293.28"
       width="12.01"
       height="12.01"
       style="fill:#ffffff;stroke:#263238;stroke-miterlimit:10"
       id="rect77" />
    <rect
       x="273.17001"
       y="293.28"
       width="12.01"
       height="12.01"
       style="fill:#ffffff;stroke:#263238;stroke-miterlimit:10"
       id="rect79" />
    <rect
       x="288.5"
       y="293.28"
       width="12.01"
       height="12.01"
       style="fill:#ffffff;stroke:#263238;stroke-miterlimit:10"
       id="rect81" />
    <rect
       x="303.84"
       y="293.28"
       width="12.01"
       height="12.01"
       style="fill:#ffffff;stroke:#263238;stroke-miterlimit:10"
       id="rect83" />
    <rect
       x="319.17001"
       y="293.28"
       width="12.01"
       height="12.01"
       style="fill:#ffffff;stroke:#263238;stroke-miterlimit:10"
       id="rect85" />
    <rect
       x="334.51001"
       y="293.28"
       width="12.01"
       height="12.01"
       style="fill:#ffffff;stroke:#263238;stroke-miterlimit:10"
       id="rect87" />
    <rect
       x="150.5"
       y="352.01999"
       width="12.01"
       height="12.01"
       style="fill:#ffffff;stroke:#263238;stroke-miterlimit:10"
       id="rect89" />
    <rect
       x="165.84"
       y="352.01999"
       width="12.01"
       height="12.01"
       style="fill:#ffffff;stroke:#263238;stroke-miterlimit:10"
       id="rect91" />
    <rect
       x="181.17"
       y="352.01999"
       width="12.01"
       height="12.01"
       style="fill:#ffffff;stroke:#263238;stroke-miterlimit:10"
       id="rect93" />
    <rect
       x="196.5"
       y="352.01999"
       width="14.66"
       height="12.01"
       style="fill:#ffffff;stroke:#263238;stroke-miterlimit:10"
       id="rect95" />
    <rect
       x="214.48"
       y="352.01999"
       width="73.349998"
       height="12.01"
       style="fill:#ffffff;stroke:#263238;stroke-miterlimit:10"
       id="rect97" />
    <rect
       x="312.48999"
       y="352.01999"
       width="12.01"
       height="12.01"
       style="fill:#ffffff;stroke:#263238;stroke-miterlimit:10"
       id="rect99" />
    <rect
       x="327.82001"
       y="352.01999"
       width="12.01"
       height="12.01"
       style="fill:#ffffff;stroke:#263238;stroke-miterlimit:10"
       id="rect101" />
    <rect
       x="343.17999"
       y="352.01999"
       width="12.01"
       height="12.01"
       style="fill:#ffffff;stroke:#263238;stroke-miterlimit:10"
       id="rect103" />
    <rect
       x="290.82999"
       y="352.01999"
       width="18.65"
       height="12.01"
       style="fill:#ffffff;stroke:#263238;stroke-miterlimit:10"
       id="rect105" />
    <rect
       x="359"
       y="352.01999"
       width="12.01"
       height="12.01"
       style="fill:#ffffff;stroke:#263238;stroke-miterlimit:10"
       id="rect107" />
    <rect
       x="171.48"
       y="307.92001"
       width="12.01"
       height="12.01"
       style="fill:#ffffff;stroke:#263238;stroke-miterlimit:10"
       id="rect109" />
    <rect
       x="186.81"
       y="307.92001"
       width="12.01"
       height="12.01"
       style="fill:#ffffff;stroke:#263238;stroke-miterlimit:10"
       id="rect111" />
    <rect
       x="202.14999"
       y="307.92001"
       width="12.01"
       height="12.01"
       style="fill:#ffffff;stroke:#263238;stroke-miterlimit:10"
       id="rect113" />
    <rect
       x="217.48"
       y="307.92001"
       width="12.01"
       height="12.01"
       style="fill:#ffffff;stroke:#263238;stroke-miterlimit:10"
       id="rect115" />
    <rect
       x="232.82001"
       y="307.92001"
       width="12.01"
       height="12.01"
       style="fill:#ffffff;stroke:#263238;stroke-miterlimit:10"
       id="rect117" />
    <rect
       x="248.14999"
       y="307.92001"
       width="12.01"
       height="12.01"
       style="fill:#ffffff;stroke:#263238;stroke-miterlimit:10"
       id="rect119" />
    <rect
       x="263.48001"
       y="307.92001"
       width="12.01"
       height="12.01"
       style="fill:#ffffff;stroke:#263238;stroke-miterlimit:10"
       id="rect121" />
    <rect
       x="278.82001"
       y="307.92001"
       width="12.01"
       height="12.01"
       style="fill:#ffffff;stroke:#263238;stroke-miterlimit:10"
       id="rect123" />
    <rect
       x="294.14999"
       y="307.92001"
       width="12.01"
       height="12.01"
       style="fill:#ffffff;stroke:#263238;stroke-miterlimit:10"
       id="rect125" />
    <rect
       x="309.48001"
       y="307.92001"
       width="12.01"
       height="12.01"
       style="fill:#ffffff;stroke:#263238;stroke-miterlimit:10"
       id="rect127" />
    <rect
       x="324.82001"
       y="307.92001"
       width="12.01"
       height="12.01"
       style="fill:#ffffff;stroke:#263238;stroke-miterlimit:10"
       id="rect129" />
    <rect
       x="340.14999"
       y="307.92001"
       width="12.01"
       height="12.01"
       style="fill:#ffffff;stroke:#263238;stroke-miterlimit:10"
       id="rect131" />
    <polygon
       points="355.48,307.92 371.01,307.92 371.01,334.58 359,334.58 359,319.94 355.48,319.94 "
       style="fill:#ffffff;stroke:#263238;stroke-miterlimit:10"
       id="polygon133" />
    <rect
       x="175"
       y="322.56"
       width="12.01"
       height="12.01"
       style="fill:#ffffff;stroke:#263238;stroke-miterlimit:10"
       id="rect135" />
    <rect
       x="190.33"
       y="322.56"
       width="12.01"
       height="12.01"
       style="fill:#ffffff;stroke:#263238;stroke-miterlimit:10"
       id="rect137" />
    <rect
       x="205.66"
       y="322.56"
       width="12.01"
       height="12.01"
       style="fill:#ffffff;stroke:#263238;stroke-miterlimit:10"
       id="rect139" />
    <rect
       x="221"
       y="322.56"
       width="12.01"
       height="12.01"
       style="fill:#ffffff;stroke:#263238;stroke-miterlimit:10"
       id="rect141" />
    <rect
       x="236.33"
       y="322.56"
       width="12.01"
       height="12.01"
       style="fill:#ffffff;stroke:#263238;stroke-miterlimit:10"
       id="rect143" />
    <rect
       x="251.67"
       y="322.56"
       width="12.01"
       height="12.01"
       style="fill:#ffffff;stroke:#263238;stroke-miterlimit:10"
       id="rect145" />
    <rect
       x="267"
       y="322.56"
       width="12.01"
       height="12.01"
       style="fill:#ffffff;stroke:#263238;stroke-miterlimit:10"
       id="rect147" />
    <rect
       x="282.32999"
       y="322.56"
       width="12.01"
       height="12.01"
       style="fill:#ffffff;stroke:#263238;stroke-miterlimit:10"
       id="rect149" />
    <rect
       x="297.67001"
       y="322.56"
       width="12.01"
       height="12.01"
       style="fill:#ffffff;stroke:#263238;stroke-miterlimit:10"
       id="rect151" />
    <rect
       x="313"
       y="322.56"
       width="12.01"
       height="12.01"
       style="fill:#ffffff;stroke:#263238;stroke-miterlimit:10"
       id="rect153" />
    <rect
       x="328.32999"
       y="322.56"
       width="12.01"
       height="12.01"
       style="fill:#ffffff;stroke:#263238;stroke-miterlimit:10"
       id="rect155" />
    <rect
       x="343.67001"
       y="322.56"
       width="12.01"
       height="12.01"
       style="fill:#ffffff;stroke:#263238;stroke-miterlimit:10"
       id="rect157" />
    <rect
       x="168.48"
       y="337.20001"
       width="12.01"
       height="12.01"
       style="fill:#ffffff;stroke:#263238;stroke-miterlimit:10"
       id="rect159" />
    <rect
       x="183.81"
       y="337.20001"
       width="12.01"
       height="12.01"
       style="fill:#ffffff;stroke:#263238;stroke-miterlimit:10"
       id="rect161" />
    <rect
       x="199.14999"
       y="337.20001"
       width="12.01"
       height="12.01"
       style="fill:#ffffff;stroke:#263238;stroke-miterlimit:10"
       id="rect163" />
    <rect
       x="214.48"
       y="337.20001"
       width="12.01"
       height="12.01"
       style="fill:#ffffff;stroke:#263238;stroke-miterlimit:10"
       id="rect165" />
    <rect
       x="229.81"
       y="337.20001"
       width="12.01"
       height="12.01"
       style="fill:#ffffff;stroke:#263238;stroke-miterlimit:10"
       id="rect167" />
    <rect
       x="245.14999"
       y="337.20001"
       width="12.01"
       height="12.01"
       style="fill:#ffffff;stroke:#263238;stroke-miterlimit:10"
       id="rect169" />
    <rect
       x="260.48001"
       y="337.20001"
       width="12.01"
       height="12.01"
       style="fill:#ffffff;stroke:#263238;stroke-miterlimit:10"
       id="rect171" />
    <rect
       x="275.82001"
       y="337.20001"
       width="12.01"
       height="12.01"
       style="fill:#ffffff;stroke:#263238;stroke-miterlimit:10"
       id="rect173" />
    <rect
       x="291.14999"
       y="337.20001"
       width="12.01"
       height="12.01"
       style="fill:#ffffff;stroke:#263238;stroke-miterlimit:10"
       id="rect175" />
    <rect
       x="306.48001"
       y="337.20001"
       width="12.01"
       height="12.01"
       style="fill:#ffffff;stroke:#263238;stroke-miterlimit:10"
       id="rect177" />
    <rect
       x="321.82001"
       y="337.20001"
       width="12.01"
       height="12.01"
       style="fill:#ffffff;stroke:#263238;stroke-miterlimit:10"
       id="rect179" />
    <rect
       x="175"
       y="279.35999"
       width="12.01"
       height="12.01"
       style="fill:#ffffff;stroke:#263238;stroke-miterlimit:10"
       id="rect181" />
    <rect
       x="190.33"
       y="279.35999"
       width="12.01"
       height="12.01"
       style="fill:#ffffff;stroke:#263238;stroke-miterlimit:10"
       id="rect183" />
    <rect
       x="205.66"
       y="279.35999"
       width="12.01"
       height="12.01"
       style="fill:#ffffff;stroke:#263238;stroke-miterlimit:10"
       id="rect185" />
    <rect
       x="221"
       y="279.35999"
       width="12.01"
       height="12.01"
       style="fill:#ffffff;stroke:#263238;stroke-miterlimit:10"
       id="rect187" />
    <rect
       x="236.33"
       y="279.35999"
       width="12.01"
       height="12.01"
       style="fill:#ffffff;stroke:#263238;stroke-miterlimit:10"
       id="rect189" />
    <rect
       x="251.67"
       y="279.35999"
       width="12.01"
       height="12.01"
       style="fill:#ffffff;stroke:#263238;stroke-miterlimit:10"
       id="rect191" />
    <rect
       x="267"
       y="279.35999"
       width="12.01"
       height="12.01"
       style="fill:#ffffff;stroke:#263238;stroke-miterlimit:10"
       id="rect193" />
    <rect
       x="282.32999"
       y="279.35999"
       width="12.01"
       height="12.01"
       style="fill:#ffffff;stroke:#263238;stroke-miterlimit:10"
       id="rect195" />
    <rect
       x="297.67001"
       y="279.35999"
       width="12.01"
       height="12.01"
       style="fill:#ffffff;stroke:#263238;stroke-miterlimit:10"
       id="rect197" />
    <rect
       x="313"
       y="279.35999"
       width="12.01"
       height="12.01"
       style="fill:#ffffff;stroke:#263238;stroke-miterlimit:10"
       id="rect199" />
    <rect
       x="328.32999"
       y="279.35999"
       width="12.01"
       height="12.01"
       style="fill:#ffffff;stroke:#263238;stroke-miterlimit:10"
       id="rect201" />
    <rect
       x="343.67001"
       y="279.35999"
       width="12.01"
       height="12.01"
       style="fill:#ffffff;stroke:#263238;stroke-miterlimit:10"
       id="rect203" />
    <rect
       x="359"
       y="279.35999"
       width="12.01"
       height="12.01"
       style="fill:#ffffff;stroke:#263238;stroke-miterlimit:10"
       id="rect205" />
    <rect
       x="150.5"
       y="337.20001"
       width="14.55"
       height="12.01"
       style="fill:#ffffff;stroke:#263238;stroke-miterlimit:10"
       id="rect207" />
    <polygon
       points="376.39,273.36 145.68,273.38 150.5,271.78 373.22,271.78 "
       style="fill:#263238"
       id="polygon209" />
  </g>
  <g
     id="freepik--Hands--inject-11"
     transform="translate(0,-46)">
    <path
       d="m 310.33,440 -4.69,-28.25 a 23.07,23.07 0 0 0 -6.35,-11.06 c -9.33,-9 -21.66,-18.24 -22.19,-30 -0.81,-18 -3.62,-17.49 -3.32,-21.94 a 54.06,54.06 0 0 0 3.21,-6.6 38.47,38.47 0 0 0 1.36,-5.34 3.64,3.64 0 0 1 4,-2.85 6.19,6.19 0 0 1 3.39,1.59 9.39,9.39 0 0 1 2.54,6.5 27.79,27.79 0 0 1 -1,7.06 46.16,46.16 0 0 1 3,12.41 c 1.07,-3.3 1.88,-6.63 2.95,-9.92 0.22,-0.12 0.14,-0.38 0.35,-0.5 -1.51,-3.24 -0.23,-3.06 -3.22,-10.19 -5,-12 -10.64,-23.57 -14.65,-38.65 a 8.57,8.57 0 0 1 0.09,-4.24 c 1.45,-4.31 5.89,-3.32 7.83,-0.81 a 8.28,8.28 0 0 1 1.2,2.18 116.46,116.46 0 0 0 9.57,18.45 l 10.89,16.6 c 0,0 3.79,-3.11 4.37,-4.5 v 0 c 0.57,-1.4 0.85,-12.67 0.85,-12.67 0,0 -0.86,2.11 -2.77,2 -1.38,-0.1 -4.18,0.7 -6.17,-1.54 a 5.21,5.21 0 0 1 -0.18,-6.54 l 4.93,-6.66 a 7.48,7.48 0 0 1 7.74,-0.93 36.82,36.82 0 0 1 8.71,6.1 17.81,17.81 0 0 1 7.58,1.46 c 3.49,1.68 7.15,6.5 7.15,6.5 0,0 4.07,0.25 5.9,1.58 0.46,0.33 6.67,10 4.43,17.53 -1.33,4.49 -2.15,11 -2.75,12.76 l -3.05,44.09 6.15,29 -13.15,7.33 A 94,94 0 0 1 320,436.68 Z"
       style="opacity:0.2"
       id="path212" />
    <path
       d="m 347.67,388.48 0.12,-44.21 c 0.48,-1.78 0.87,-8.34 1.89,-12.91 1.74,-7.66 -5.1,-16.9 -5.58,-17.2 -1.92,-1.19 -6,-1.17 -6,-1.17 0,0 -4,-4.57 -7.57,-6 a 17.87,17.87 0 0 0 -7.66,-1 36.61,36.61 0 0 0 -9.1,-5.51 7.49,7.49 0 0 0 -7.66,1.44 l -4.47,7 a 5.21,5.21 0 0 0 0.61,6.52 c 2.14,2.11 4.88,1.12 6.26,1.12 1.91,0 2.63,-2.16 2.63,-2.16 0,0 0.47,11.26 0,12.69 v 0 c -0.49,1.43 -4.07,4.78 -4.07,4.78 l -12,-15.83 a 114.51,114.51 0 0 1 -10.77,-17.78 8.5,8.5 0 0 0 -1.35,-2.09 c -2.1,-2.38 -6.59,-3.07 -7.76,1.32 a 8.7,8.7 0 0 0 0.19,4.24 c 5,14.78 11.38,25.95 17.19,37.59 3.45,6.91 2.17,6.83 3.89,9.95 -0.2,0.14 -0.1,0.4 -0.32,0.53 -0.84,3.36 -1.43,6.73 -2.28,10.09 a 46,46 0 0 0 -3.83,-12.18 27.5,27.5 0 0 0 0.53,-7.12 9.38,9.38 0 0 0 -3,-6.31 6.17,6.17 0 0 0 -3.49,-1.36 3.64,3.64 0 0 0 -3.84,3.12 37.51,37.51 0 0 1 -1,5.41 54.48,54.48 0 0 1 -2.76,6.8 c 0,4.46 2.76,3.73 4.77,21.67 1.56,14 19.56,23.21 29.36,33.3 l 10.44,32.86 A 202.3,202.3 0 0 0 356,417.79 Z"
       style="fill:#ffffff"
       id="path214" />
    <g
       clip-path="url(#freepik--clip-path--inject-11)"
       id="g286">
      <path
         d="m 342.55,328.41 a 7.69,7.69 0 0 1 2.29,-3.46 2.93,2.93 0 0 1 3.83,0.13 q -1.12,-3.43 -2.38,-6.83 a 10.56,10.56 0 0 0 -2.78,-4.68 c -1.42,-1.16 -3.76,-1.4 -5,0 a 54.05,54.05 0 0 1 0.28,15.81 c -0.37,2.84 -0.85,6.1 1.06,8.23 0.53,0.43 1.45,-0.34 1.11,-0.93 -0.16,-0.28 -0.72,-0.3 -1,-0.28 a 50.82,50.82 0 0 1 2.59,-7.99 z"
         style="fill:#5e66d6"
         id="path216" />
      <path
         d="m 342.55,328.41 a 7.69,7.69 0 0 1 2.29,-3.46 2.93,2.93 0 0 1 3.83,0.13 q -1.12,-3.43 -2.38,-6.83 a 10.56,10.56 0 0 0 -2.78,-4.68 c -1.42,-1.16 -3.76,-1.4 -5,0 a 54.05,54.05 0 0 1 0.28,15.81 c -0.37,2.84 -0.85,6.1 1.06,8.23 0.53,0.43 1.45,-0.34 1.11,-0.93 -0.16,-0.28 -0.72,-0.3 -1,-0.28 a 50.82,50.82 0 0 1 2.59,-7.99 z"
         style="fill:#5e66d6"
         id="path218" />
      <path
         d="m 342.55,328.41 a 7.69,7.69 0 0 1 2.29,-3.46 2.93,2.93 0 0 1 3.83,0.13 q -1.12,-3.43 -2.38,-6.83 a 10.56,10.56 0 0 0 -2.78,-4.68 c -1.42,-1.16 -3.76,-1.4 -5,0 a 54.05,54.05 0 0 1 0.28,15.81 c -0.37,2.84 -0.85,6.1 1.06,8.23 0.53,0.43 1.45,-0.34 1.11,-0.93 -0.16,-0.28 -0.72,-0.3 -1,-0.28 a 50.82,50.82 0 0 1 2.59,-7.99 z"
         style="opacity:0.5;fill:#ffffff"
         id="path220" />
      <path
         d="m 326.59,323.67 a 28.27,28.27 0 0 0 0.54,5.74 7.14,7.14 0 0 0 3.2,4.61 c -1,-3.72 -0.46,-7.67 0.08,-11.48 l 1,-7 a 5.17,5.17 0 0 1 0.71,-2.32 1.8,1.8 0 0 1 2.11,-0.76 c -1,0.58 -2.27,-0.2 -2.87,-1.18 a 29.42,29.42 0 0 0 -1.53,-3.08 c -1.34,-1.72 -4.2,-2.1 -6.18,-1.64 0.59,5.75 2.71,11.21 2.94,17.11 z"
         style="fill:#5e66d6"
         id="path222" />
      <path
         d="m 326.59,323.67 a 28.27,28.27 0 0 0 0.54,5.74 7.14,7.14 0 0 0 3.2,4.61 c -1,-3.72 -0.46,-7.67 0.08,-11.48 l 1,-7 a 5.17,5.17 0 0 1 0.71,-2.32 1.8,1.8 0 0 1 2.11,-0.76 c -1,0.58 -2.27,-0.2 -2.87,-1.18 a 29.42,29.42 0 0 0 -1.53,-3.08 c -1.34,-1.72 -4.2,-2.1 -6.18,-1.64 0.59,5.75 2.71,11.21 2.94,17.11 z"
         style="fill:#5e66d6"
         id="path224" />
      <g
         style="opacity:0.5"
         id="g228">
        <path
           d="m 326.59,323.67 a 28.27,28.27 0 0 0 0.54,5.74 7.14,7.14 0 0 0 3.2,4.61 c -1,-3.72 -0.46,-7.67 0.08,-11.48 l 1,-7 a 5.17,5.17 0 0 1 0.71,-2.32 1.8,1.8 0 0 1 2.11,-0.76 c -1,0.58 -2.27,-0.2 -2.87,-1.18 a 29.42,29.42 0 0 0 -1.53,-3.08 c -1.34,-1.72 -4.2,-2.1 -6.18,-1.64 0.59,5.75 2.71,11.21 2.94,17.11 z"
           style="fill:#ffffff"
           id="path226" />
      </g>
      <path
         d="m 310.27,308.25 a 3.51,3.51 0 0 1 -1.06,-2.1 3,3 0 0 0 -1.17,-2 c -3.07,1.95 -1.39,7.66 -4.5,9.55 -0.6,0.37 -1.37,0.58 -1.7,1.2 a 1.58,1.58 0 0 0 0.33,1.76 3,3 0 0 0 1.7,0.8 6.85,6.85 0 0 0 6.54,-2.84 c 1.22,-1.68 2.06,-4.38 1.46,-6.37 a 1.54,1.54 0 0 1 -1.6,0 z"
         style="fill:#5e66d6"
         id="path230" />
      <path
         d="m 278.34,345.64 c 0,0.21 -0.09,0.48 0.08,0.62 0.17,0.14 0.61,-0.12 0.81,-0.4 a 5.35,5.35 0 0 1 5.95,-1.93 c 0.81,0 1.09,-1.25 0.56,-1.86 a 2.89,2.89 0 0 0 -2.24,-0.72 4.36,4.36 0 0 1 -2.36,-0.39 2.34,2.34 0 0 1 -1,-2.52 c -0.51,2.41 -1.14,4.8 -1.8,7.2 z"
         style="fill:#5e66d6"
         id="path232" />
      <g
         style="opacity:0.5"
         id="g238">
        <path
           d="m 310.27,308.25 a 3.51,3.51 0 0 1 -1.06,-2.1 3,3 0 0 0 -1.17,-2 c -3.07,1.95 -1.39,7.66 -4.5,9.55 -0.6,0.37 -1.37,0.58 -1.7,1.2 a 1.58,1.58 0 0 0 0.33,1.76 3,3 0 0 0 1.7,0.8 6.85,6.85 0 0 0 6.54,-2.84 c 1.22,-1.68 2.06,-4.38 1.46,-6.37 a 1.54,1.54 0 0 1 -1.6,0 z"
           style="fill:#ffffff"
           id="path234" />
        <path
           d="m 278.34,345.64 c 0,0.21 -0.09,0.48 0.08,0.62 0.17,0.14 0.61,-0.12 0.81,-0.4 a 5.35,5.35 0 0 1 5.95,-1.93 c 0.81,0 1.09,-1.25 0.56,-1.86 a 2.89,2.89 0 0 0 -2.24,-0.72 4.36,4.36 0 0 1 -2.36,-0.39 2.34,2.34 0 0 1 -1,-2.52 c -0.51,2.41 -1.14,4.8 -1.8,7.2 z"
           style="fill:#ffffff"
           id="path236" />
      </g>
      <path
         d="m 319.06,307.49 c -1.75,-0.23 -3.6,-0.28 -5.13,-1.17 -1.9,-1.12 -3.21,-3.5 -5.42,-3.6 -2,-0.09 -3.43,1.71 -4.54,3.33 a 6.07,6.07 0 0 1 3.94,-5.63 9.78,9.78 0 0 1 7.15,0.28 26.83,26.83 0 0 1 6.2,3.87 8.31,8.31 0 0 1 2.1,2 c 2.47,3.93 -2.76,1.13 -4.3,0.92 z"
         style="fill:#5e66d6"
         id="path240" />
      <path
         d="m 319.06,307.49 c -1.75,-0.23 -3.6,-0.28 -5.13,-1.17 -1.9,-1.12 -3.21,-3.5 -5.42,-3.6 -2,-0.09 -3.43,1.71 -4.54,3.33 a 6.07,6.07 0 0 1 3.94,-5.63 9.78,9.78 0 0 1 7.15,0.28 26.83,26.83 0 0 1 6.2,3.87 8.31,8.31 0 0 1 2.1,2 c 2.47,3.93 -2.76,1.13 -4.3,0.92 z"
         style="opacity:0.5;fill:#ffffff"
         id="path242" />
      <path
         d="m 287.78,364.28 a 6.9,6.9 0 0 0 0.32,-0.67 0.76,0.76 0 0 0 -0.32,0.67 z"
         style="fill:#5e66d6"
         id="path244" />
      <path
         d="m 290.75,348.79 c -0.2,-2.46 0.15,-4.94 0.05,-7.41 -0.1,-2.47 -0.75,-5.07 -2.55,-6.77 -2.58,-2.43 -9.65,-1.19 -7.28,3.43 a 3,3 0 0 0 3.67,1.37 2.67,2.67 0 0 0 1.25,-3.61 12.81,12.81 0 0 1 -0.61,14.56 11.62,11.62 0 0 1 2.82,13.25 1.46,1.46 0 0 1 1.65,0 5,5 0 0 1 1.27,2.26 c 0.35,0.81 1,1.65 1.88,1.59 1.2,-2.95 0.81,-6.3 0,-9.38 -0.81,-3.08 -1.9,-6.08 -2.15,-9.29 z"
         style="fill:#5e66d6"
         id="path246" />
      <path
         d="m 316.62,302.42 a 10,10 0 0 0 -4.73,-2 z"
         style="fill:#5e66d6"
         id="path248" />
      <path
         d="m 328.38,333.71 c -0.38,-1.7 -1.17,-3.28 -1.64,-5 -1.09,-3.91 -0.4,-8.09 -0.9,-12.12 a 20.92,20.92 0 0 0 -7.43,-13.45 l -1.79,-0.76 a 10.09,10.09 0 0 1 3.6,5.24 c 1.39,4.78 1.82,9.76 2.44,14.7 a 197.1,197.1 0 0 0 4.15,22.68 c 1.19,-3.68 2.4,-7.54 1.57,-11.29 z"
         style="fill:#5e66d6"
         id="path250" />
      <path
         d="m 309.34,315.93 a 6.29,6.29 0 0 0 2.11,-4.11 17,17 0 0 0 -0.11,-4.22 1.4,1.4 0 0 1 -1.58,0.95 3.55,3.55 0 0 1 -1.89,-1.72 l -0.36,1.25 -0.15,-0.68 -0.48,0.61 c 0.71,2 1.4,4.33 0.3,6.16 a 7.23,7.23 0 0 1 -2.25,2.08 3.8,3.8 0 0 0 4.41,-0.32 z"
         style="fill:#5e66d6"
         id="path252" />
      <path
         d="m 311.28,307.1 0.06,0.5 a 0.8,0.8 0 0 0 -0.06,-0.5 z"
         style="fill:#5e66d6"
         id="path254" />
      <path
         d="m 306.05,327.34 c -3.5,-6.89 -7,-13.78 -10.87,-20.48 a 66.25,66.25 0 0 0 -7.64,-11.17 c -1.34,-1.49 -5.16,-4.95 -7.27,-2.67 -1.41,1.52 0.44,4.28 -1.29,5.93 0.4,0 2.35,-0.19 2.56,0.07 a 30.41,30.41 0 0 1 6.71,19.39 c 1.41,-1.11 3.35,0.43 4.45,1.85 a 326.39,326.39 0 0 1 19,27.1 c -1.14,-4.13 -1.17,-8.52 -2.39,-12.62 a 45,45 0 0 0 -3.26,-7.4 z"
         style="fill:#5e66d6"
         id="path256" />
      <path
         d="m 346.79,344.13 a 43.81,43.81 0 0 0 3.13,-13.84 22.65,22.65 0 0 0 -3.14,-12.53 c -0.58,-0.93 -3,-4.77 -4.29,-4.46 -2.35,0.56 0.73,4.64 1.27,5.66 2,3.85 4.11,7.92 4,12.27 -0.1,3.35 -1.51,6.5 -2.64,9.65 a 20.79,20.79 0 0 0 -1.41,6.86 c -0.17,0.26 -0.33,0.53 -0.52,0.77 a 10.27,10.27 0 0 1 -6.28,4.15 c 1,-3 1.93,-6 2.9,-9 0.35,-1.07 0.47,-2.53 -0.15,-3.27 a 2.8,2.8 0 0 0 0.31,-1.3 6.61,6.61 0 0 0 -0.85,-2.3 c -1.34,-2.88 -0.89,-6.23 -0.56,-9.39 0.4,-3.9 0.55,-7.91 -0.59,-11.66 -1.14,-3.75 -3.79,-7.23 -7.51,-8.47 l 1,1 -1.26,-0.92 2.34,4.88 -0.86,1.23 c 1.29,-0.68 2.94,0.3 3.53,1.63 a 8.58,8.58 0 0 1 0.29,4.31 86.2,86.2 0 0 0 1.18,24.26 11.78,11.78 0 0 1 -1.44,5.33 5.25,5.25 0 0 1 -5,2.71 5.26,5.26 0 0 0 -1.93,-5.33 c -2,2.8 -0.82,7.15 -0.52,10.34 a 112.45,112.45 0 0 0 2.33,14.36 46.42,46.42 0 0 1 2.55,-12 q 1.62,5.92 3.26,11.85 a 7,7 0 0 1 0.62,-3.23 2.41,2.41 0 0 1 2.76,-1.28 3.41,3.41 0 0 1 1.65,2.06 36.75,36.75 0 0 1 2,21.63 c 1.34,0.75 3.12,-0.15 3.87,-1.49 a 9,9 0 0 0 0.71,-4.5 q -0.41,-19.97 -0.75,-39.98 z"
         style="fill:#5e66d6"
         id="path258" />
      <path
         d="m 312.89,348.36 c -0.64,1.12 2,5.58 2.41,6.64 q 3.3,8.07 6.61,16.15 a 76.45,76.45 0 0 0 -5.12,-20.68 c -0.45,-1.11 -2.63,-4.34 -3.9,-2.11 z"
         style="fill:#5e66d6"
         id="path260" />
      <path
         d="m 316.31,319.84 c -0.38,0.57 -0.91,1.27 -1.56,1.07 -0.65,-0.2 -0.72,-1 -0.71,-1.63 q 0.1,-5.61 0.19,-11.23 c -3,2.17 -2.64,5 -2.85,8.24 -0.12,1.87 0.42,10.8 -0.86,11.89 a 33.33,33.33 0 0 0 7.44,-9.06 c -0.52,-0.43 -1.28,0.15 -1.65,0.72 z"
         style="fill:#5e66d6"
         id="path262" />
      <g
         style="opacity:0.5"
         id="g284">
        <path
           d="m 287.78,364.28 a 6.9,6.9 0 0 0 0.32,-0.67 0.76,0.76 0 0 0 -0.32,0.67 z"
           style="fill:#ffffff"
           id="path264" />
        <path
           d="m 290.75,348.79 c -0.2,-2.46 0.15,-4.94 0.05,-7.41 -0.1,-2.47 -0.75,-5.07 -2.55,-6.77 -2.58,-2.43 -9.65,-1.19 -7.28,3.43 a 3,3 0 0 0 3.67,1.37 2.67,2.67 0 0 0 1.25,-3.61 12.81,12.81 0 0 1 -0.61,14.56 11.62,11.62 0 0 1 2.82,13.25 1.46,1.46 0 0 1 1.65,0 5,5 0 0 1 1.27,2.26 c 0.35,0.81 1,1.65 1.88,1.59 1.2,-2.95 0.81,-6.3 0,-9.38 -0.81,-3.08 -1.9,-6.08 -2.15,-9.29 z"
           style="fill:#ffffff"
           id="path266" />
        <path
           d="m 316.62,302.42 a 10,10 0 0 0 -4.73,-2 z"
           style="fill:#ffffff"
           id="path268" />
        <path
           d="m 328.38,333.71 c -0.38,-1.7 -1.17,-3.28 -1.64,-5 -1.09,-3.91 -0.4,-8.09 -0.9,-12.12 a 20.92,20.92 0 0 0 -7.43,-13.45 l -1.79,-0.76 a 10.09,10.09 0 0 1 3.6,5.24 c 1.39,4.78 1.82,9.76 2.44,14.7 a 197.1,197.1 0 0 0 4.15,22.68 c 1.19,-3.68 2.4,-7.54 1.57,-11.29 z"
           style="fill:#ffffff"
           id="path270" />
        <path
           d="m 309.34,315.93 a 6.29,6.29 0 0 0 2.11,-4.11 17,17 0 0 0 -0.11,-4.22 1.4,1.4 0 0 1 -1.58,0.95 3.55,3.55 0 0 1 -1.89,-1.72 l -0.36,1.25 -0.15,-0.68 -0.48,0.61 c 0.71,2 1.4,4.33 0.3,6.16 a 7.23,7.23 0 0 1 -2.25,2.08 3.8,3.8 0 0 0 4.41,-0.32 z"
           style="fill:#ffffff"
           id="path272" />
        <path
           d="m 311.28,307.1 0.06,0.5 a 0.8,0.8 0 0 0 -0.06,-0.5 z"
           style="fill:#ffffff"
           id="path274" />
        <path
           d="m 306.05,327.34 c -3.5,-6.89 -7,-13.78 -10.87,-20.48 a 66.25,66.25 0 0 0 -7.64,-11.17 c -1.34,-1.49 -5.16,-4.95 -7.27,-2.67 -1.41,1.52 0.44,4.28 -1.29,5.93 0.4,0 2.35,-0.19 2.56,0.07 a 30.41,30.41 0 0 1 6.71,19.39 c 1.41,-1.11 3.35,0.43 4.45,1.85 a 326.39,326.39 0 0 1 19,27.1 c -1.14,-4.13 -1.17,-8.52 -2.39,-12.62 a 45,45 0 0 0 -3.26,-7.4 z"
           style="fill:#ffffff"
           id="path276" />
        <path
           d="m 346.79,344.13 a 43.81,43.81 0 0 0 3.13,-13.84 22.65,22.65 0 0 0 -3.14,-12.53 c -0.58,-0.93 -3,-4.77 -4.29,-4.46 -2.35,0.56 0.73,4.64 1.27,5.66 2,3.85 4.11,7.92 4,12.27 -0.1,3.35 -1.51,6.5 -2.64,9.65 a 20.79,20.79 0 0 0 -1.41,6.86 c -0.17,0.26 -0.33,0.53 -0.52,0.77 a 10.27,10.27 0 0 1 -6.28,4.15 c 1,-3 1.93,-6 2.9,-9 0.35,-1.07 0.47,-2.53 -0.15,-3.27 a 2.8,2.8 0 0 0 0.31,-1.3 6.61,6.61 0 0 0 -0.85,-2.3 c -1.34,-2.88 -0.89,-6.23 -0.56,-9.39 0.4,-3.9 0.55,-7.91 -0.59,-11.66 -1.14,-3.75 -3.79,-7.23 -7.51,-8.47 l 1,1 -1.26,-0.92 2.34,4.88 -0.86,1.23 c 1.29,-0.68 2.94,0.3 3.53,1.63 a 8.58,8.58 0 0 1 0.29,4.31 86.2,86.2 0 0 0 1.18,24.26 11.78,11.78 0 0 1 -1.44,5.33 5.25,5.25 0 0 1 -5,2.71 5.26,5.26 0 0 0 -1.93,-5.33 c -2,2.8 -0.82,7.15 -0.52,10.34 a 112.45,112.45 0 0 0 2.33,14.36 46.42,46.42 0 0 1 2.55,-12 q 1.62,5.92 3.26,11.85 a 7,7 0 0 1 0.62,-3.23 2.41,2.41 0 0 1 2.76,-1.28 3.41,3.41 0 0 1 1.65,2.06 36.75,36.75 0 0 1 2,21.63 c 1.34,0.75 3.12,-0.15 3.87,-1.49 a 9,9 0 0 0 0.71,-4.5 q -0.41,-19.97 -0.75,-39.98 z"
           style="fill:#ffffff"
           id="path278" />
        <path
           d="m 312.89,348.36 c -0.64,1.12 2,5.58 2.41,6.64 q 3.3,8.07 6.61,16.15 a 76.45,76.45 0 0 0 -5.12,-20.68 c -0.45,-1.11 -2.63,-4.34 -3.9,-2.11 z"
           style="fill:#ffffff"
           id="path280" />
        <path
           d="m 316.31,319.84 c -0.38,0.57 -0.91,1.27 -1.56,1.07 -0.65,-0.2 -0.72,-1 -0.71,-1.63 q 0.1,-5.61 0.19,-11.23 c -3,2.17 -2.64,5 -2.85,8.24 -0.12,1.87 0.42,10.8 -0.86,11.89 a 33.33,33.33 0 0 0 7.44,-9.06 c -0.52,-0.43 -1.28,0.15 -1.65,0.72 z"
           style="fill:#ffffff"
           id="path282" />
      </g>
    </g>
    <path
       d="m 324,307.59 a 78.74,78.74 0 0 1 2.72,20 10.81,10.81 0 0 0 0.36,3.36 3.34,3.34 0 0 0 2.29,2.29"
       style="fill:none"
       id="path288" />
    <path
       d="m 338.11,314.16 c 3,6.26 -0.07,20.25 0.15,21.23 a 3.53,3.53 0 0 0 1.69,2.4"
       style="fill:none"
       id="path290" />
    <path
       d="m 312.33,306.74 c -0.35,2 -0.64,4.29 -1,6.28 a 11.54,11.54 0 0 1 -4,-8"
       style="fill:none"
       id="path292" />
    <path
       d="M 293.17,360.09 291,361"
       style="fill:none"
       id="path294" />
    <path
       d="m 293.72,361.82 a 12.5,12.5 0 0 0 0,5.06"
       style="fill:none"
       id="path296" />
    <path
       d="m 306.36,343.14 c 0.8,1.43 1.59,2.87 2.39,4.31"
       style="fill:none"
       id="path298" />
    <path
       d="M 311,327.36 313.38,324"
       style="fill:none"
       id="path300" />
    <path
       d="m 344.43,343.14 -0.72,2.63"
       style="fill:none"
       id="path302" />
    <path
       d="m 338.61,335.93 q 1,-3.36 2.11,-6.72"
       style="fill:none"
       id="path304" />
    <path
       d="m 345.65,324 a 2.71,2.71 0 0 1 3.64,1.13"
       style="fill:none"
       id="path306" />
    <path
       d="m 331.28,312.53 a 5.17,5.17 0 0 1 4.81,1.1"
       style="fill:none"
       id="path308" />
    <path
       d="m 286.74,319.2 a 7.31,7.31 0 0 1 6.2,-2.34"
       style="fill:none"
       id="path310" />
    <path
       d="m 277.71,300.34 a 6.7,6.7 0 0 1 5,-1.18"
       style="fill:none"
       id="path312" />
    <path
       d="m 279.57,345.09 a 12.76,12.76 0 0 0 -2.93,3.29 z"
       style="fill:#ffffff"
       id="path314" />
    <path
       d="m 280.53,340.55 c 1.58,-1.13 4.1,1.39 5.55,0.1 a 2.3,2.3 0 0 0 0.49,-2.16 7.5,7.5 0 0 1 -0.29,-2.29"
       style="fill:none"
       id="path316" />
    <path
       d="m 325.12,333.61 a 18.11,18.11 0 0 1 1.1,12.82"
       style="fill:none"
       id="path318" />
    <path
       d="m 336.74,339.78 a 8.33,8.33 0 0 1 -1,5.5"
       style="fill:none"
       id="path320" />
    <path
       d="m 321.11,436.09 -10.44,-32.86 c -9.8,-10.09 -27.8,-19.32 -29.36,-33.3 -2,-17.94 -4.77,-17.21 -4.77,-21.67 a 54.48,54.48 0 0 0 2.76,-6.8 37.51,37.51 0 0 0 1,-5.41 3.64,3.64 0 0 1 3.84,-3.12 6.17,6.17 0 0 1 3.49,1.36 9.38,9.38 0 0 1 3,6.31 27.5,27.5 0 0 1 -0.53,7.12 46,46 0 0 1 3.83,12.18 c 0.85,-3.36 1.44,-6.73 2.28,-10.09 0.22,-0.13 0.12,-0.39 0.32,-0.53 -1.72,-3.12 -0.44,-3 -3.89,-9.95 -5.81,-11.64 -12.18,-22.81 -17.19,-37.59 a 8.7,8.7 0 0 1 -0.19,-4.24 c 1.17,-4.39 5.66,-3.7 7.76,-1.32 a 8.5,8.5 0 0 1 1.35,2.09 114.51,114.51 0 0 0 10.77,17.78 l 12,15.83 c 0,0 3.58,-3.35 4.07,-4.78 v 0 c 0.47,-1.43 0,-12.69 0,-12.69 0,0 -0.72,2.16 -2.63,2.16 -1.38,0 -4.12,1 -6.26,-1.12 a 5.21,5.21 0 0 1 -0.61,-6.52 l 4.47,-7 a 7.49,7.49 0 0 1 7.66,-1.44 36.61,36.61 0 0 1 9.1,5.51 17.87,17.87 0 0 1 7.66,1 c 3.6,1.45 7.57,6 7.57,6 0,0 4.07,0 6,1.17 0.48,0.3 7.32,9.54 5.58,17.2 -1,4.57 -1.41,11.13 -1.89,12.91 l -0.12,44.21 8.26,29.3"
       style="fill:none;stroke:#263238;stroke-miterlimit:10"
       id="path322" />
    <path
       d="m 324,307.59 a 78.74,78.74 0 0 1 2.72,20 10.81,10.81 0 0 0 0.36,3.36 3.34,3.34 0 0 0 2.29,2.29"
       style="fill:none;stroke:#263238;stroke-miterlimit:10"
       id="path324" />
    <path
       d="m 338.11,314.16 c 3,6.26 -0.07,20.25 0.15,21.23 a 3.53,3.53 0 0 0 1.69,2.4"
       style="fill:none;stroke:#263238;stroke-miterlimit:10"
       id="path326" />
    <path
       d="m 312.33,306.74 c -0.35,2 -0.64,4.29 -1,6.28 a 11.54,11.54 0 0 1 -4,-8"
       style="fill:none;stroke:#263238;stroke-miterlimit:10"
       id="path328" />
    <path
       d="M 293.17,360.09 291,361"
       style="fill:none;stroke:#263238;stroke-miterlimit:10"
       id="path330" />
    <path
       d="m 293.72,361.82 a 12.5,12.5 0 0 0 0,5.06"
       style="fill:none;stroke:#263238;stroke-miterlimit:10"
       id="path332" />
    <path
       d="m 306.36,343.14 c 0.8,1.43 1.59,2.87 2.39,4.31"
       style="fill:none;stroke:#263238;stroke-miterlimit:10"
       id="path334" />
    <path
       d="M 311,327.36 313.38,324"
       style="fill:none;stroke:#263238;stroke-miterlimit:10"
       id="path336" />
    <path
       d="m 344.43,343.14 -0.72,2.63"
       style="fill:none;stroke:#263238;stroke-miterlimit:10"
       id="path338" />
    <path
       d="m 338.61,335.93 q 1,-3.36 2.11,-6.72"
       style="fill:none;stroke:#263238;stroke-miterlimit:10"
       id="path340" />
    <path
       d="m 345.65,324 a 2.71,2.71 0 0 1 3.64,1.13"
       style="fill:none;stroke:#263238;stroke-miterlimit:10"
       id="path342" />
    <path
       d="m 331.28,312.53 a 5.17,5.17 0 0 1 4.81,1.1"
       style="fill:none;stroke:#263238;stroke-miterlimit:10"
       id="path344" />
    <path
       d="m 286.74,319.2 a 7.31,7.31 0 0 1 6.2,-2.34"
       style="fill:none;stroke:#263238;stroke-miterlimit:10"
       id="path346" />
    <path
       d="m 277.71,300.34 a 6.7,6.7 0 0 1 5,-1.18"
       style="fill:none;stroke:#263238;stroke-miterlimit:10"
       id="path348" />
    <path
       d="m 279.57,345.09 a 12.76,12.76 0 0 0 -2.93,3.29"
       style="fill:none;stroke:#263238;stroke-miterlimit:10"
       id="path350" />
    <path
       d="m 280.53,340.55 c 1.58,-1.13 4.1,1.39 5.55,0.1 a 2.3,2.3 0 0 0 0.49,-2.16 7.5,7.5 0 0 1 -0.29,-2.29"
       style="fill:none;stroke:#263238;stroke-miterlimit:10"
       id="path352" />
    <path
       d="m 325.12,333.61 a 18.11,18.11 0 0 1 1.1,12.82"
       style="fill:none;stroke:#263238;stroke-miterlimit:10"
       id="path354" />
    <path
       d="m 336.74,339.78 a 8.33,8.33 0 0 1 -1,5.5"
       style="fill:none;stroke:#263238;stroke-miterlimit:10"
       id="path356" />
    <path
       d="m 240.05,354.79 a 6.06,6.06 0 0 1 -0.09,2.08 c -0.65,3 -2.53,11.78 -3.22,16.58 -0.82,5.86 -10.29,24 -10.29,24 0,0 -8.72,10.84 -13.16,16.48 -2.18,2.77 -5.63,14 -8.56,24.66 q -5.55,-1.68 -11,-3.62 c -3,-1.07 -6,-2.2 -9,-3.37 A 147.09,147.09 0 0 1 169.11,424 c 1.66,-6 2.77,-10.67 2.75,-10.94 -0.05,-0.63 3.56,-7.58 3.56,-7.58 l -3.15,-41.48 -1.86,-6.31 a 47.39,47.39 0 0 1 -1.83,-10 48.34,48.34 0 0 1 1.29,-15.33 l 5.43,-8.06 2.54,-0.19 7.86,-11 c 0,0 4.25,-1.28 5.34,1.92 1.09,3.2 -3.54,9.18 -3.54,9.18 l -1.59,9.87 3.78,9.24 2,0.72 c 0,0 0.66,-16.27 0.21,-19.52 l 4.1,-14.79 a 70.54,70.54 0 0 0 3.26,-7.46 c 0.76,-2.49 5.23,-5 7.8,-0.59 a 6.43,6.43 0 0 1 0.4,5.27 c -1.05,3.05 -1.92,5.45 -1.92,5.45 0,0 -1,12.58 -1.25,12.93 -0.25,0.35 1.85,18.73 1.85,18.73 l 1.64,0.73 0.58,-17.55 3.41,-16.49 c 0,0 -0.28,-7.93 5.31,-7 a 4.32,4.32 0 0 1 4.11,2.56 c 1.49,2.85 0.07,21.83 0.07,21.83 l 1.38,19.62 2.21,15.13 2.6,-10.37 c 0,0 0.15,-14.86 9.53,-16.13 0,0 2.79,-0.5 3.36,1.44 0.57,1.94 -1.39,5.9 -1.11,9.7 0.25,2.7 0.63,5.71 0.82,7.26 z"
       style="opacity:0.2"
       id="path358" />
    <path
       d="m 237.2,336.42 c -0.43,-2 -3.24,-1.69 -3.24,-1.69 -9.45,0.56 -10.72,15.37 -10.72,15.37 l -3.39,10.14 -1,-15.26 0.1,-19.67 c 0,0 2.86,-18.82 1.59,-21.77 a 4.31,4.31 0 0 0 -3.91,-2.86 c -5.5,-1.38 -5.82,6.55 -5.82,6.55 l -4.64,16.18 -1.91,17.45 -1.58,-0.84 c 0,0 -0.75,-18.52 -0.43,-18.83 0.32,-0.31 2.22,-12.79 2.22,-12.79 0,0 1.05,-2.33 2.33,-5.29 a 6.43,6.43 0 0 0 0,-5.29 c -2.23,-4.54 -6.87,-2.42 -7.83,0 a 70.39,70.39 0 0 1 -3.8,7.19 l -5.3,14.49 c 0.2,3.28 -1.68,19.46 -1.68,19.46 l -1.91,-0.87 -3.07,-9.5 2.34,-9.73 c 0,0 5.07,-5.6 4.22,-8.88 -0.85,-3.28 -5.18,-2.32 -5.18,-2.32 L 175.88,318 h -2.55 l -6,7.61 a 48.27,48.27 0 0 0 -1.38,25.29 l 1.38,6.43 v 41.56 c 0,0 -4.12,6.66 -4.12,7.29 0,0.29 -1.7,5.54 -4.07,12.09 10.37,6.1 19.3,10.82 25.63,13.31 3,1.18 6,2.3 9,3.37 3.8,-10.67 8.24,-22.08 10.69,-24.75 4.86,-5.28 14.38,-15.44 14.38,-15.44 0,0 10.81,-17.37 12.08,-23.14 1,-4.74 3.58,-13.35 4.46,-16.3 a 5.77,5.77 0 0 0 0.24,-2.07 c -0.07,-1.56 -0.22,-4.59 -0.22,-7.26 -0.04,-3.79 2.22,-7.6 1.8,-9.57 z"
       style="fill:#ffffff"
       id="path360" />
    <g
       clip-path="url(#freepik--clip-path-2--inject-11)"
       id="g384">
      <path
         d="m 172.3,332.24 c 1.62,-2 4.94,-2.79 6.82,-1 a 7.17,7.17 0 0 1 1.71,4 8.53,8.53 0 0 0 1.51,4.12 c 1,1.13 2.89,1.57 3.9,0.49 0.14,2.19 0.27,4.38 0.41,6.57 A 26.05,26.05 0 0 0 190.09,333 c 0,-2.27 -0.39,-4.58 0.14,-6.8 0.53,-2.22 2.24,-4.36 4.52,-4.47 2.52,-0.11 4.51,2.34 5,4.82 0.49,2.48 -0.08,5 -0.23,7.54 a 22.94,22.94 0 0 0 2.16,11.21 l 1.59,-3.22 c 0.48,2.16 1,4.31 1.43,6.46 q 0.62,-7.11 1.24,-14.21 a 10.36,10.36 0 0 1 0.87,-3.9 3.46,3.46 0 0 1 3.21,-2 c 1.8,0.18 2.84,2.1 3.44,3.8 4.51,12.75 2.65,26.74 0.74,40.12 1.25,0.23 2.31,-1 2.62,-2.27 a 29,29 0 0 1 0.67,-3.74 c 0.47,-1.19 1.91,-2.16 3,-1.48 1.58,1 0.48,4.06 2.13,4.91 a 22.82,22.82 0 0 1 4.53,-10.93 c 1.11,-1.44 2.77,-2.87 4.53,-2.41 a 3.56,3.56 0 0 1 2.37,3 c 0.19,1.34 2.13,-4.2 1.79,-2.89 0.76,-7.71 -0.76,-8.52 0,-16.24 0.14,-1.39 2.39,-3.8 1.43,-4.82 -0.96,-1.02 -3.63,-2.4 -4.84,-1.84 -1.21,0.56 -5.13,2.52 -5.91,3.59 -4.92,6.79 -4.58,16.61 -6.11,24.85 -1.31,-12.56 -2.6,-25.33 -0.3,-37.74 1.27,-6.85 3.61,-14 1.4,-20.59 -1,-3 -3.69,-6 -6.82,-5.46 -2.52,0.46 -4,3 -5.07,5.36 -3.44,7.9 -5,16.48 -6.48,25 L 208.76,303 a 17.35,17.35 0 0 0 0.58,-6.74 c -0.41,-2.24 -1.94,-4.43 -4.16,-4.9 -2.22,-0.47 -4.4,0.84 -6.06,2.36 -6,5.44 -8.16,13.74 -10.1,21.56 a 15.52,15.52 0 0 0 1.16,-6.31 c -0.21,-2.14 -1.57,-4.32 -3.67,-4.79 -2.73,-0.59 -5.2,1.84 -6.4,4.35 -1.2,2.51 -1.78,5.42 -3.69,7.45 -1.39,-1.56 -4,-1.47 -5.74,-0.31 a 11.09,11.09 0 0 0 -3.65,5 46.52,46.52 0 0 0 -3.87,22.48 8.23,8.23 0 0 1 8.21,-4.68 c -0.2,-1.7 -0.39,-3.4 -0.59,-5.11"
         style="fill:#5e66d6"
         id="path362" />
      <path
         d="m 178.89,348.51 c -0.09,1.26 -0.17,2.52 -0.26,3.78 a 1.82,1.82 0 0 1 2.77,-0.7 4.14,4.14 0 0 1 0.63,-2.34 c 0.32,-0.76 0.35,-1.84 -0.39,-2.2 -0.74,-0.36 -1.74,0.58 -2.21,1.44 0,-0.31 -0.07,-0.62 -0.11,-0.94 z"
         style="fill:#5e66d6"
         id="path364" />
      <path
         d="m 193.23,346.25 a 8.84,8.84 0 0 0 -2,4.18 4.31,4.31 0 0 1 1.47,-1.08 1.48,1.48 0 0 1 1.66,0.38 c 0.22,0.3 0.3,0.74 0.64,0.91 a 0.79,0.79 0 0 0 1,-0.36 2.28,2.28 0 0 0 0.25,-1.1 6.08,6.08 0 0 0 -0.12,-2.17 2.11,2.11 0 0 0 -1.44,-1.51 1.3,1.3 0 0 0 -1.57,1.1 z"
         style="fill:#5e66d6"
         id="path366" />
      <path
         d="m 207.12,349.69 a 11.36,11.36 0 0 0 -2.1,5 4.38,4.38 0 0 0 1.95,-1.05 3.86,3.86 0 0 1 2,-1 1.39,1.39 0 0 1 1.55,1.22 9.41,9.41 0 0 1 0.08,-2.54 5.35,5.35 0 0 0 -0.18,-2.52 2.13,2.13 0 0 0 -1.93,-1.42 1.34,1.34 0 0 0 -1.18,1.8 z"
         style="fill:#5e66d6"
         id="path368" />
      <path
         d="m 168.91,354.71 a 10,10 0 0 0 -1.17,4.7 1.64,1.64 0 0 1 1.47,-1.46 3.28,3.28 0 0 1 2.13,0.57 5.78,5.78 0 0 0 0.14,-2.3 2,2 0 0 0 -1.46,-1.6 c -0.77,-0.12 -1.61,0.61 -1.4,1.35 l -0.23,-0.57 z"
         style="fill:#5e66d6"
         id="path370" />
      <path
         d="m 172.3,332.24 c 1.62,-2 4.94,-2.79 6.82,-1 a 7.17,7.17 0 0 1 1.71,4 8.53,8.53 0 0 0 1.51,4.12 c 1,1.13 2.89,1.57 3.9,0.49 0.14,2.19 0.27,4.38 0.41,6.57 A 26.05,26.05 0 0 0 190.09,333 c 0,-2.27 -0.39,-4.58 0.14,-6.8 0.53,-2.22 2.24,-4.36 4.52,-4.47 2.52,-0.11 4.51,2.34 5,4.82 0.49,2.48 -0.08,5 -0.23,7.54 a 22.94,22.94 0 0 0 2.16,11.21 l 1.59,-3.22 c 0.48,2.16 1,4.31 1.43,6.46 q 0.62,-7.11 1.24,-14.21 a 10.36,10.36 0 0 1 0.87,-3.9 3.46,3.46 0 0 1 3.21,-2 c 1.8,0.18 2.84,2.1 3.44,3.8 4.51,12.75 2.65,26.74 0.74,40.12 1.25,0.23 2.31,-1 2.62,-2.27 a 29,29 0 0 1 0.67,-3.74 c 0.47,-1.19 1.91,-2.16 3,-1.48 1.58,1 0.48,4.06 2.13,4.91 a 22.82,22.82 0 0 1 4.53,-10.93 c 1.11,-1.44 2.77,-2.87 4.53,-2.41 a 3.56,3.56 0 0 1 2.37,3 c 0.19,1.34 2.13,-4.2 1.79,-2.89 0.76,-7.71 -0.76,-8.52 0,-16.24 0.14,-1.39 2.39,-3.8 1.43,-4.82 -0.96,-1.02 -3.63,-2.4 -4.84,-1.84 -1.21,0.56 -5.13,2.52 -5.91,3.59 -4.92,6.79 -4.58,16.61 -6.11,24.85 -1.31,-12.56 -2.6,-25.33 -0.3,-37.74 1.27,-6.85 3.61,-14 1.4,-20.59 -1,-3 -3.69,-6 -6.82,-5.46 -2.52,0.46 -4,3 -5.07,5.36 -3.44,7.9 -5,16.48 -6.48,25 L 208.76,303 a 17.35,17.35 0 0 0 0.58,-6.74 c -0.41,-2.24 -1.94,-4.43 -4.16,-4.9 -2.22,-0.47 -4.4,0.84 -6.06,2.36 -6,5.44 -8.16,13.74 -10.1,21.56 a 15.52,15.52 0 0 0 1.16,-6.31 c -0.21,-2.14 -1.57,-4.32 -3.67,-4.79 -2.73,-0.59 -5.2,1.84 -6.4,4.35 -1.2,2.51 -1.78,5.42 -3.69,7.45 -1.39,-1.56 -4,-1.47 -5.74,-0.31 a 11.09,11.09 0 0 0 -3.65,5 46.52,46.52 0 0 0 -3.87,22.48 8.23,8.23 0 0 1 8.21,-4.68 c -0.2,-1.7 -0.39,-3.4 -0.59,-5.11"
         style="opacity:0.5;fill:#ffffff"
         id="path372" />
      <g
         style="opacity:0.5"
         id="g382">
        <path
           d="m 178.89,348.51 c -0.09,1.26 -0.17,2.52 -0.26,3.78 a 1.82,1.82 0 0 1 2.77,-0.7 4.14,4.14 0 0 1 0.63,-2.34 c 0.32,-0.76 0.35,-1.84 -0.39,-2.2 -0.74,-0.36 -1.74,0.58 -2.21,1.44 0,-0.31 -0.07,-0.62 -0.11,-0.94 z"
           style="fill:#ffffff"
           id="path374" />
        <path
           d="m 193.23,346.25 a 8.84,8.84 0 0 0 -2,4.18 4.31,4.31 0 0 1 1.47,-1.08 1.48,1.48 0 0 1 1.66,0.38 c 0.22,0.3 0.3,0.74 0.64,0.91 a 0.79,0.79 0 0 0 1,-0.36 2.28,2.28 0 0 0 0.25,-1.1 6.08,6.08 0 0 0 -0.12,-2.17 2.11,2.11 0 0 0 -1.44,-1.51 1.3,1.3 0 0 0 -1.57,1.1 z"
           style="fill:#ffffff"
           id="path376" />
        <path
           d="m 207.12,349.69 a 11.36,11.36 0 0 0 -2.1,5 4.38,4.38 0 0 0 1.95,-1.05 3.86,3.86 0 0 1 2,-1 1.39,1.39 0 0 1 1.55,1.22 9.41,9.41 0 0 1 0.08,-2.54 5.35,5.35 0 0 0 -0.18,-2.52 2.13,2.13 0 0 0 -1.93,-1.42 1.34,1.34 0 0 0 -1.18,1.8 z"
           style="fill:#ffffff"
           id="path378" />
        <path
           d="m 168.91,354.71 a 10,10 0 0 0 -1.17,4.7 1.64,1.64 0 0 1 1.47,-1.46 3.28,3.28 0 0 1 2.13,0.57 5.78,5.78 0 0 0 0.14,-2.3 2,2 0 0 0 -1.46,-1.6 c -0.77,-0.12 -1.61,0.61 -1.4,1.35 l -0.23,-0.57 z"
           style="fill:#ffffff"
           id="path380" />
      </g>
    </g>
    <path
       d="m 159.11,418.29 c 2.37,-6.55 4.07,-11.8 4.07,-12.09 0,-0.63 4.12,-7.29 4.12,-7.29 v -41.56 l -1.38,-6.43 a 48.27,48.27 0 0 1 1.38,-25.29 l 6,-7.61 h 2.55 l 8.66,-10.36 c 0,0 4.34,-1 5.18,2.32 0.84,3.32 -4.22,8.88 -4.22,8.88 l -2.34,9.73 3.07,9.5 1.91,0.87 c 0,0 1.88,-16.18 1.68,-19.46 l 5.3,-14.49 a 70.39,70.39 0 0 0 3.8,-7.19 c 1,-2.42 5.6,-4.54 7.83,0 a 6.43,6.43 0 0 1 0,5.29 c -1.28,3 -2.33,5.29 -2.33,5.29 0,0 -1.9,12.47 -2.22,12.79 -0.32,0.32 0.43,18.83 0.43,18.83 l 1.58,0.84 1.91,-17.45 4.64,-16.18 c 0,0 0.32,-7.93 5.82,-6.55 a 4.31,4.31 0 0 1 3.91,2.86 c 1.27,2.95 -1.59,21.77 -1.59,21.77 l -0.07,19.69 1,15.26 3.39,-10.14 c 0,0 1.27,-14.81 10.72,-15.37 0,0 2.81,-0.29 3.24,1.69 0.43,1.98 -1.84,5.78 -1.84,9.59 0,2.67 0.15,5.7 0.22,7.26 a 5.77,5.77 0 0 1 -0.24,2.07 c -0.88,3 -3.42,11.56 -4.46,16.3 -1.27,5.77 -12.08,23.14 -12.08,23.14 0,0 -9.52,10.16 -14.38,15.44 -2.45,2.67 -6.89,14.08 -10.69,24.75"
       style="fill:none;stroke:#263238;stroke-miterlimit:10"
       id="path386" />
    <path
       d="m 188,340.52 a 6,6 0 0 1 -1.42,5.7"
       style="fill:#ffffff;stroke:#263238;stroke-miterlimit:10"
       id="path388" />
    <path
       d="m 171.84,354.5 c 1.37,-2.12 2.71,-5.05 2.34,-7.55 -0.72,-4.91 -3,-10.56 -2,-15.42 0.64,-3.1 1.28,-6.21 1.93,-9.31"
       style="fill:#ffffff;stroke:#263238;stroke-miterlimit:10"
       id="path390" />
    <path
       d="m 211.71,308.12 a 9.81,9.81 0 0 1 5,0 c 0,-0.47 0,-0.93 0.05,-1.4"
       style="fill:none;stroke:#263238;stroke-miterlimit:10"
       id="path392" />
    <path
       d="m 198.58,301.88 a 3.2,3.2 0 0 0 5,-2.67"
       style="fill:none;stroke:#263238;stroke-miterlimit:10"
       id="path394" />
    <path
       d="m 234.72,336.59 a 6.13,6.13 0 0 0 -4.59,6.33 l 2.45,0.74"
       style="fill:none;stroke:#263238;stroke-miterlimit:10"
       id="path396" />
    <path
       d="m 202.54,337.81 c 0.11,1.68 -0.1,5.69 0,7.37"
       style="fill:#ffffff;stroke:#263238;stroke-miterlimit:10"
       id="path398" />
    <path
       d="m 204.38,340.14 q -0.3,4.11 -0.61,8.24 c 0,-0.35 0,-0.7 0,-1.05"
       style="fill:#ffffff;stroke:#263238;stroke-miterlimit:10"
       id="path400" />
    <path
       d="m 219.64,363.31 a 13.74,13.74 0 0 1 -0.94,9.06"
       style="fill:#ffffff;stroke:#263238;stroke-miterlimit:10"
       id="path402" />
    <path
       d="m 194.29,348.9 c -2.18,2.39 -1.86,8.13 -0.32,11.28"
       style="fill:none;stroke:#263238;stroke-miterlimit:10"
       id="path404" />
    <path
       d="m 210.4,352.85 a 11.23,11.23 0 0 1 -2.67,7.33"
       style="fill:none;stroke:#263238;stroke-miterlimit:10"
       id="path406" />
    <path
       d="m 178.41,350 a 10.22,10.22 0 0 0 1.49,7"
       style="fill:none;stroke:#263238;stroke-miterlimit:10"
       id="path408" />
    <path
       d="m 169.13,357.51 a 8.53,8.53 0 0 0 1.54,5.34"
       style="fill:none;stroke:#263238;stroke-miterlimit:10"
       id="path410" />
    <path
       d="m 181.85,311.41 a 3.17,3.17 0 0 1 3.5,0.56 l 1.23,-1.63"
       style="fill:none;stroke:#263238;stroke-miterlimit:10"
       id="path412" />
    <path
       d="m 192.11,318.75 a 4.16,4.16 0 0 1 5.29,0.89"
       style="fill:none;stroke:#263238;stroke-miterlimit:10"
       id="path414" />
    <path
       d="m 208.13,323.75 a 6.7,6.7 0 0 1 5.69,0.12"
       style="fill:none;stroke:#263238;stroke-miterlimit:10"
       id="path416" />
    <path
       d="m 172.48,332.14 a 5.41,5.41 0 0 1 5.24,-2.6"
       style="fill:none;stroke:#263238;stroke-miterlimit:10"
       id="path418" />
    <path
       d="m 165.77,341.7 a 2.84,2.84 0 0 1 2.37,-2.66"
       style="fill:none;stroke:#263238;stroke-miterlimit:10"
       id="path420" />
  </g>
  <g
     id="freepik--Coffee--inject-11"
     transform="translate(0,-46)">
    <circle
       cx="423.44"
       cy="228.39"
       r="41.450001"
       style="fill:none;stroke:#263238;stroke-linecap:round;stroke-linejoin:round"
       id="circle423" />
    <path
       d="m 470.36,229.48 c -8.84,14.49 -12,12.53 -42.12,27 -15.31,7.34 -30.1,-16.23 -20.09,-40.42 0.49,-1.18 4.81,-7.15 4.81,-7.15 a 22.08,22.08 0 0 1 38.58,-9.12 23.84,23.84 0 0 1 21.18,-5.06 c 0.35,1 0.68,2 1,3 0.12,0.38 0.25,0.75 0.36,1.13 0.38,1.17 0.74,2.34 1.07,3.52 q 1,3.36 1.84,6.76 a 13.55,13.55 0 0 0 -9.84,0.59 c -2.21,1.08 -4.06,2.86 -6.36,3.74 -2.3,0.88 -5.48,0.38 -6.36,-1.92 1.11,4.62 6,3.24 10.62,4.15 7.2,1.39 9.03,7.68 5.31,13.78 z"
       style="opacity:0.2"
       id="path425" />
    <path
       d="m 456.75,222.33 c 0,0 7.42,-1 10.94,-0.47 a 6.75,6.75 0 0 1 4.31,2.44 2.37,2.37 0 0 1 0.51,1.33 l 0.4,5.8 a 2.37,2.37 0 0 1 -0.64,1.79 c -1.45,1.51 -5.82,4.26 -18.76,5.25 -18.23,1.39 3.24,-16.14 3.24,-16.14 z"
       style="fill:#ffffff;stroke:#263238;stroke-linecap:round;stroke-linejoin:round"
       id="path427" />
    <path
       d="M 451.32,207.34 A 27.69,27.69 0 0 1 457.4,225 c 0,6.91 -8,30.51 -28.49,33.39 -21.69,3 -39.13,-15.52 -35.41,-37.86 2.58,-15.48 40.41,-34.83 57.82,-13.19 z"
       style="fill:#ffffff;stroke:#263238;stroke-linecap:round;stroke-linejoin:round"
       id="path429" />
    <ellipse
       cx="424.82001"
       cy="223.41"
       rx="31.469999"
       ry="29.790001"
       style="fill:#ffffff"
       id="ellipse431" />
    <ellipse
       cx="424.76001"
       cy="224.97"
       rx="25.84"
       ry="24.450001"
       style="fill:#263238"
       id="ellipse433" />
    <path
       d="m 456.29,223.41 c 0,-16.45 -14.09,-29.78 -31.47,-29.78 -17.38,0 -31.47,13.37 -31.47,29.78"
       style="fill:none;stroke:#263238;stroke-linecap:round;stroke-linejoin:round"
       id="path435" />
    <path
       d="m 448,243.57 a 28.79,28.79 0 0 0 8.3,-20.16"
       style="fill:none;stroke:#263238;stroke-linecap:round;stroke-linejoin:round"
       id="path437" />
    <path
       d="m 402.78,244.67 a 32.28,32.28 0 0 0 22,8.53 32.85,32.85 0 0 0 14.61,-3.39"
       style="fill:none;stroke:#263238;stroke-linecap:round;stroke-linejoin:round"
       id="path439" />
    <path
       d="m 398.24,239.36 c 0.41,0.62 0.85,1.22 1.3,1.8"
       style="fill:none;stroke:#263238;stroke-linecap:round;stroke-linejoin:round"
       id="path441" />
    <path
       d="m 393.35,223.41 a 28.39,28.39 0 0 0 3,12.71"
       style="fill:none;stroke:#263238;stroke-linecap:round;stroke-linejoin:round"
       id="path443" />
    <path
       d="m 471,231.57 c 0,0 -5.61,-3.93 -14.72,-0.37"
       style="fill:#ffffff;stroke:#263238;stroke-linecap:round;stroke-linejoin:round"
       id="path445" />
    <path
       d="m 466.18,234.29 a 57.1,57.1 0 0 1 -11.64,1.83"
       style="fill:#ffffff;stroke:#263238;stroke-linecap:round;stroke-linejoin:round"
       id="path447" />
    <path
       d="m 469.09,233.05 a 5.44,5.44 0 0 1 -1.4,0.73"
       style="fill:#ffffff;stroke:#263238;stroke-linecap:round;stroke-linejoin:round"
       id="path449" />
    <path
       d="m 474.08,198.83 c -0.11,-0.38 -0.24,-0.75 -0.36,-1.13 -1.91,-5.92 -4.37,-12.42 -7.36,-19.28 -0.55,-1.27 -1.13,-2.56 -1.71,-3.86 l -0.67,0.06 c -2.87,0.29 -5.89,0.65 -8.25,2.28 -2.36,1.63 -3.77,5.07 -2.24,7.52 1.53,2.45 5.43,3.78 4.81,6.55 -6.41,3.61 -14.23,3.19 -21.36,5 A 34.78,34.78 0 0 0 425,201.6 v 0 a 36.71,36.71 0 0 0 -3.24,2.72 12.81,12.81 0 0 0 -1.32,1.42 c 0,0 0,0 0,0 a 4.89,4.89 0 0 0 -1.13,2.54 c -0.25,2.67 2.18,4.49 4.77,5.65 a 0.58,0.58 0 0 1 0,1.08 14.9,14.9 0 0 0 -4.67,2.7 v 0 a 1.16,1.16 0 0 0 1,2 h 0.4 a 7.55,7.55 0 0 1 3,0.36 3.63,3.63 0 0 1 2.71,2.86 c 0.16,2 -2.15,3.86 -5.15,4.09 -0.73,0.07 -0.17,0.94 0.9,1.12 a 16,16 0 0 0 6.4,-0.52 c 2.51,-0.6 5.19,-1.47 6.61,-3.62 a 4.52,4.52 0 0 0 0.6,-3.18 3.22,3.22 0 0 0 -2.66,-2.92 87.49,87.49 0 0 0 13.72,-2.75 v 0 l 1.41,-0.43 a 13.16,13.16 0 0 0 3.87,-1.69 5.39,5.39 0 0 0 1.69,-1.86 c 1,-2 -0.43,-5.19 -2.65,-4.77 6.45,-2.53 13.27,-4 19.79,-6.34 0.95,-0.39 2.01,-0.79 3.03,-1.23 z"
       style="fill:#ffffff"
       id="path451" />
  </g>
  <g
     id="freepik--Monitor--inject-11"
     transform="translate(0,-46)">
    <path
       d="m 424.64,112.33 a 127,127 0 0 1 -19.9,14 c -36.41,21.54 -77.54,34.44 -119.38,40.73 -41.84,6.29 -84.44,6.1 -126.6,2.63 -8.28,-0.68 -16.7,-1.52 -24.31,-4.86 -6.45,-2.84 -12.3,-7.78 -15,-14.17 9.13,-10.4 17.62,-20.92 27.07,-30.85 q 3.38,-3.55 6.92,-7 c 2,-1.91 4,-3.79 6.14,-5.63 2.42,-2.07 4.85,-4.18 7.42,-6.18 3.55,-2.76 7.29,-5.41 11.29,-7.94 1,-0.63 2,-1.24 2.93,-1.84 99.71,-62 173.1,-41.74 222.06,0 Q 408.85,96 414,101 c 2.08,2 4.09,4.09 6,6.19 0.22,0.22 0.42,0.45 0.63,0.69 q 2.07,2.23 4.01,4.45 z"
       style="opacity:0.2"
       id="path454" />
    <path
       d="m 428.58,102.39 -335.47,1.53 5.07,-7.61 a 13.17,13.17 0 0 1 10.94,-5.85 h 303.56 a 13.14,13.14 0 0 1 10.24,4.91 z"
       style="fill:#ffffff;stroke:#263238;stroke-linecap:round;stroke-linejoin:round"
       id="path456" />
    <rect
       x="214.16"
       y="152.67"
       width="86.68"
       height="86.68"
       rx="34.150002"
       style="fill:#757575;stroke:#263238;stroke-linecap:round;stroke-linejoin:round"
       id="rect458" />
    <path
       d="m 229.91,203.34 v 12.32 a 7,7 0 0 0 7,7 h 42.27 a 7,7 0 0 0 7,-6.95 c 0.05,-5.55 0.35,-12.37 0.35,-12.37 z"
       style="fill:#999999;stroke:#263238;stroke-linecap:round;stroke-linejoin:round"
       id="path460" />
    <path
       d="M 384.62,207.45 H 137.41 a 6.33,6.33 0 0 1 -5.9,-4 L 93.38,105.56 A 3.9,3.9 0 0 1 97,100.24 h 328 a 3.9,3.9 0 0 1 3.64,5.32 l -38.13,97.86 a 6.33,6.33 0 0 1 -5.89,4.03 z"
       style="fill:#bfbfbf;stroke:#263238;stroke-linecap:round;stroke-linejoin:round"
       id="path462" />
    <polygon
       points="420.89,106.44 386.45,198.93 134.98,198.93 100.38,106.44 "
       style="fill:#263238"
       id="polygon464" />
    <rect
       x="230.17999"
       y="207.32001"
       width="56.060001"
       height="3.8399999"
       style="fill:#263238"
       id="rect466" />
    <path
       d="M 349.72,195 H 172.14 c -1,0 -1.9,-0.44 -2.08,-1 L 144.8,113.71 c -0.28,-0.9 0.51,-1.63 1.77,-1.63 h 228.72 c 1.26,0 2,0.73 1.76,1.63 L 351.8,194 c -0.18,0.51 -1.11,1 -2.08,1 z"
       style="fill:#5e66d6"
       id="path468" />
    <polygon
       points="370.53,122.62 349.06,193.13 172.8,193.13 151.33,122.62 "
       style="fill:#263238"
       id="polygon470" />
    <path
       d="m 198.1,140.13 h -33.37 c -0.83,0 -1.37,0.44 -1.21,1 a 1.81,1.81 0 0 0 1.76,1 h 33.18 c 0.82,0 1.4,-0.44 1.31,-1 -0.09,-0.56 -0.85,-1 -1.67,-1 z"
       style="fill:#ffffff"
       id="path472" />
    <path
       d="m 199.21,146.22 h -28.38 c -0.81,0 -1.35,0.43 -1.2,1 a 1.77,1.77 0 0 0 1.71,0.95 h 28.22 c 0.81,0 1.38,-0.43 1.29,-0.95 -0.09,-0.52 -0.85,-1 -1.64,-1 z"
       style="fill:#ffffff"
       id="path474" />
    <path
       d="m 200.29,152.1 h -32.2 c -0.8,0 -1.32,0.42 -1.18,0.92 a 1.76,1.76 0 0 0 1.7,0.92 h 32 c 0.79,0 1.36,-0.41 1.27,-0.92 -0.09,-0.51 -0.79,-0.92 -1.59,-0.92 z"
       style="opacity:0.5;fill:#ffffff"
       id="path476" />
    <path
       d="m 201.33,157.78 h -18.91 c -0.78,0 -1.32,0.4 -1.2,0.89 0.12,0.49 0.85,0.89 1.63,0.89 h 18.81 c 0.78,0 1.34,-0.4 1.25,-0.89 -0.09,-0.49 -0.8,-0.89 -1.58,-0.89 z"
       style="fill:#ffffff"
       id="path478" />
    <path
       d="m 202.34,163.26 h -31.12 c -0.76,0 -1.28,0.39 -1.14,0.87 0.14,0.48 0.86,0.85 1.63,0.85 h 30.94 c 0.77,0 1.32,-0.38 1.24,-0.85 -0.08,-0.47 -0.78,-0.87 -1.55,-0.87 z"
       style="fill:#ffffff"
       id="path480" />
    <path
       d="m 203.31,168.57 h -25.12 c -0.76,0 -1.27,0.37 -1.15,0.83 0.12,0.46 0.83,0.83 1.58,0.83 h 25 c 0.75,0 1.29,-0.37 1.21,-0.83 -0.08,-0.46 -0.76,-0.83 -1.52,-0.83 z"
       style="fill:#ffffff"
       id="path482" />
    <path
       d="m 204.25,173.7 h -24.71 c -0.75,0 -1.25,0.36 -1.13,0.8 0.12,0.44 0.81,0.81 1.55,0.81 h 24.59 c 0.74,0 1.27,-0.36 1.19,-0.81 -0.08,-0.45 -0.74,-0.8 -1.49,-0.8 z"
       style="fill:#ffffff"
       id="path484" />
    <path
       d="m 205.16,178.66 h -27 c -0.73,0 -1.23,0.35 -1.11,0.78 0.12,0.43 0.8,0.78 1.53,0.78 h 26.83 c 0.73,0 1.26,-0.35 1.18,-0.78 -0.08,-0.43 -0.69,-0.78 -1.43,-0.78 z"
       style="fill:#ffffff"
       id="path486" />
    <path
       d="m 206.05,183.47 h -17.42 c -0.72,0 -1.22,0.34 -1.12,0.76 0.1,0.42 0.77,0.75 1.48,0.75 h 17.33 c 0.72,0 1.24,-0.34 1.17,-0.75 -0.07,-0.41 -0.72,-0.76 -1.44,-0.76 z"
       style="opacity:0.5;fill:#ffffff"
       id="path488" />
    <path
       d="m 196.94,133.81 h -24.87 c -0.84,0 -1.4,0.46 -1.25,1 a 1.8,1.8 0 0 0 1.77,1 h 24.72 c 0.84,0 1.43,-0.45 1.33,-1 a 1.66,1.66 0 0 0 -1.7,-1 z"
       style="opacity:0.5;fill:#ffffff"
       id="path490" />
    <path
       d="m 195.73,127.26 h -34.62 c -0.85,0 -1.41,0.48 -1.24,1.07 a 1.92,1.92 0 0 0 1.84,1.06 h 34.41 c 0.85,0 1.46,-0.48 1.35,-1.06 a 1.69,1.69 0 0 0 -1.74,-1.07 z"
       style="fill:#ffffff"
       id="path492" />
    <path
       d="m 206.9,188.13 h -28.69 c -0.71,0 -1.19,0.33 -1.08,0.73 0.11,0.4 0.78,0.73 1.49,0.73 h 28.55 c 0.7,0 1.22,-0.32 1.15,-0.73 -0.07,-0.41 -0.71,-0.73 -1.42,-0.73 z"
       style="fill:#ffffff"
       id="path494" />
    <polygon
       points="209.45,139.88 209.82,142.35 216.29,142.35 215.97,139.88 "
       style="opacity:0.5;fill:#ffffff"
       id="polygon496" />
    <polygon
       points="210.36,145.98 210.72,148.37 217.08,148.37 216.77,145.98 "
       style="opacity:0.5;fill:#ffffff"
       id="polygon498" />
    <polygon
       points="211.25,151.87 211.59,154.17 217.84,154.17 217.54,151.87 "
       style="opacity:0.5;fill:#ffffff"
       id="polygon500" />
    <polygon
       points="212.1,157.56 212.43,159.78 218.58,159.78 218.28,157.56 "
       style="opacity:0.5;fill:#ffffff"
       id="polygon502" />
    <polygon
       points="212.93,163.05 213.25,165.2 219.29,165.2 219,163.05 "
       style="opacity:0.5;fill:#ffffff"
       id="polygon504" />
    <polygon
       points="213.72,168.36 214.03,170.44 219.97,170.44 219.7,168.36 "
       style="opacity:0.5;fill:#ffffff"
       id="polygon506" />
    <polygon
       points="214.5,173.5 214.8,175.51 220.64,175.51 220.38,173.5 "
       style="opacity:0.5;fill:#ffffff"
       id="polygon508" />
    <polygon
       points="215.24,178.47 215.53,180.41 221.28,180.41 221.03,178.47 "
       style="opacity:0.5;fill:#ffffff"
       id="polygon510" />
    <polygon
       points="215.96,183.28 216.25,185.17 221.91,185.17 221.66,183.28 "
       style="opacity:0.5;fill:#ffffff"
       id="polygon512" />
    <polygon
       points="208.5,133.56 208.88,136.12 215.47,136.12 215.14,133.56 "
       style="opacity:0.5;fill:#ffffff"
       id="polygon514" />
    <polygon
       points="207.51,126.99 207.91,129.65 214.62,129.65 214.28,126.99 "
       style="opacity:0.5;fill:#ffffff"
       id="polygon516" />
    <polygon
       points="216.66,187.95 216.94,189.78 222.51,189.78 222.27,187.95 "
       style="opacity:0.5;fill:#ffffff"
       id="polygon518" />
    <path
       d="m 251.05,179.44 c 0,-0.43 0.56,-0.78 1.29,-0.78 h 95.82 c 0.73,0 1.22,0.35 1.1,0.78 a 1.62,1.62 0 0 1 -1.54,0.78 h -95.33 c -0.73,0 -1.33,-0.35 -1.34,-0.78 z"
       style="fill:#ffffff"
       id="path520" />
    <path
       d="m 349.13,175.31 h -53.06 c -0.74,0 -1.3,-0.36 -1.25,-0.81 0.05,-0.45 0.69,-0.8 1.44,-0.8 h 53.33 c 0.74,0 1.24,0.36 1.11,0.8 a 1.63,1.63 0 0 1 -1.57,0.81 z"
       style="fill:#ffffff"
       id="path522" />
    <path
       d="M 283.48,175.31 H 267 c -0.74,0 -1.34,-0.36 -1.33,-0.81 0.01,-0.45 0.61,-0.8 1.36,-0.8 h 16.57 c 0.74,0 1.32,0.36 1.28,0.8 -0.04,0.44 -0.66,0.81 -1.4,0.81 z"
       style="opacity:0.5;fill:#ffffff"
       id="path524" />
    <path
       d="m 317.92,170.23 h -74.84 c -0.75,0 -1.38,-0.37 -1.41,-0.83 -0.03,-0.46 0.56,-0.83 1.32,-0.83 h 75.24 c 0.75,0 1.3,0.37 1.21,0.83 -0.09,0.46 -0.76,0.83 -1.52,0.83 z"
       style="fill:#ffffff"
       id="path526" />
    <path
       d="m 227.43,168.57 h 5.34 c 0.75,0 1.4,0.37 1.44,0.83 0.04,0.46 -0.54,0.83 -1.29,0.83 h -5.31 c -0.75,0 -1.4,-0.37 -1.45,-0.83 -0.05,-0.46 0.52,-0.83 1.27,-0.83 z"
       style="opacity:0.5;fill:#ffffff"
       id="path528" />
    <path
       d="m 328.75,164.13 c -0.1,0.47 -0.8,0.85 -1.57,0.85 h -70.52 c -0.77,0 -1.39,-0.38 -1.4,-0.85 -0.01,-0.47 0.61,-0.87 1.37,-0.87 h 70.91 c 0.77,0 1.31,0.39 1.21,0.87 z"
       style="fill:#ffffff"
       id="path530" />
    <path
       d="m 226.87,163.26 h 20 c 0.77,0 1.41,0.39 1.43,0.87 0.02,0.48 -0.59,0.85 -1.35,0.85 h -19.9 c -0.76,0 -1.42,-0.38 -1.48,-0.85 -0.06,-0.47 0.53,-0.87 1.3,-0.87 z"
       style="fill:#ffffff"
       id="path532" />
    <path
       d="m 226.28,157.78 h 76.94 c 0.78,0 1.36,0.4 1.29,0.89 -0.07,0.49 -0.75,0.89 -1.53,0.89 h -76.51 c -0.77,0 -1.45,-0.4 -1.5,-0.89 -0.05,-0.49 0.53,-0.89 1.31,-0.89 z"
       style="fill:#ffffff"
       id="path534" />
    <path
       d="m 276.23,153.94 c -0.79,0 -1.41,-0.41 -1.39,-0.92 0.02,-0.51 0.68,-0.92 1.48,-0.92 h 40.59 c 0.8,0 1.37,0.42 1.28,0.92 -0.09,0.5 -0.8,0.92 -1.59,0.92 z"
       style="fill:#ffffff"
       id="path536" />
    <path
       d="m 225.68,152.1 h 35.13 c 0.8,0 1.44,0.42 1.44,0.92 0,0.5 -0.65,0.92 -1.44,0.92 h -34.93 c -0.8,0 -1.48,-0.41 -1.54,-0.92 -0.06,-0.51 0.54,-0.92 1.34,-0.92 z"
       style="fill:#ffffff"
       id="path538" />
    <path
       d="m 356.93,148.13 h -96.71 c -0.8,0 -1.46,-0.43 -1.46,-0.95 0,-0.52 0.65,-1 1.46,-1 h 97.25 c 0.81,0 1.34,0.43 1.19,1 a 1.81,1.81 0 0 1 -1.73,0.95 z"
       style="fill:#ffffff"
       id="path540" />
    <path
       d="m 358.65,142.11 h -85.09 c -0.82,0 -1.47,-0.44 -1.45,-1 0.02,-0.56 0.7,-1 1.52,-1 h 85.59 c 0.82,0 1.36,0.44 1.2,1 a 1.83,1.83 0 0 1 -1.77,1 z"
       style="fill:#ffffff"
       id="path542" />
    <path
       d="m 360.45,135.86 h -17.82 c -0.84,0 -1.41,-0.45 -1.28,-1 a 1.77,1.77 0 0 1 1.76,-1 H 361 c 0.84,0 1.39,0.46 1.22,1 a 1.86,1.86 0 0 1 -1.77,1 z"
       style="opacity:0.5;fill:#ffffff"
       id="path544" />
    <path
       d="m 330.16,135.86 h -65.43 c -0.83,0 -1.51,-0.45 -1.5,-1 0.01,-0.55 0.68,-1 1.52,-1 h 65.82 c 0.84,0 1.42,0.46 1.31,1 a 1.71,1.71 0 0 1 -1.72,1 z"
       style="fill:#ffffff"
       id="path546" />
    <path
       d="m 229,183.47 h 60.43 c 0.72,0 1.27,0.34 1.22,0.76 -0.05,0.42 -0.65,0.75 -1.37,0.75 h -60.09 c -0.72,0 -1.34,-0.34 -1.39,-0.75 -0.05,-0.41 0.5,-0.76 1.2,-0.76 z"
       style="fill:#ffffff"
       id="path548" />
    <path
       d="m 229.52,188.13 h 92.84 c 0.7,0 1.21,0.33 1.12,0.73 -0.09,0.4 -0.72,0.73 -1.43,0.73 h -92.37 c -0.71,0 -1.32,-0.32 -1.36,-0.73 -0.04,-0.41 0.49,-0.73 1.2,-0.73 z"
       style="fill:#ffffff"
       id="path550" />
    <path
       d="m 326.91,129.39 h -47.26 c -0.85,0 -1.51,-0.48 -1.48,-1.06 0.03,-0.58 0.74,-1.07 1.6,-1.07 h 47.54 c 0.86,0 1.46,0.48 1.35,1.07 a 1.74,1.74 0 0 1 -1.75,1.06 z"
       style="fill:#ffffff"
       id="path552" />
    <path
       d="m 266.25,129.39 h -43 c -0.85,0 -1.6,-0.48 -1.66,-1.06 -0.06,-0.58 0.57,-1.07 1.43,-1.07 h 43.25 c 0.85,0 1.54,0.48 1.53,1.07 -0.01,0.59 -0.7,1.06 -1.55,1.06 z"
       style="opacity:0.5;fill:#ffffff"
       id="path554" />
    <path
       d="m 302.85,183.47 c 0.72,0 1.26,0.34 1.2,0.76 -0.06,0.42 -0.69,0.75 -1.41,0.75 H 298 c -0.71,0 -1.25,-0.34 -1.2,-0.75 0.05,-0.41 0.67,-0.76 1.39,-0.76 z"
       style="opacity:0.5;fill:#ffffff"
       id="path556" />
    <path
       d="m 245.54,179.44 c 0,0.43 -0.55,0.78 -1.28,0.78 h -6.36 c -0.73,0 -1.35,-0.35 -1.38,-0.78 -0.03,-0.43 0.53,-0.78 1.26,-0.78 h 6.39 c 0.73,0 1.35,0.34 1.37,0.78 z"
       style="opacity:0.5;fill:#ffffff"
       id="path558" />
    <path
       d="m 322.29,158.67 c -0.09,0.49 -0.8,0.89 -1.57,0.89 h -7.44 c -0.78,0 -1.34,-0.4 -1.27,-0.89 0.07,-0.49 0.78,-0.89 1.56,-0.89 h 7.48 c 0.78,0 1.34,0.4 1.24,0.89 z"
       style="opacity:0.5;fill:#ffffff"
       id="path560" />
    <path
       d="m 345.5,163.26 c 0.77,0 1.29,0.39 1.16,0.87 a 1.66,1.66 0 0 1 -1.61,0.85 h -5.93 c -0.77,0 -1.29,-0.38 -1.18,-0.85 a 1.62,1.62 0 0 1 1.6,-0.87 z"
       style="opacity:0.5;fill:#ffffff"
       id="path562" />
    <path
       d="m 248.51,148.13 c -0.8,0 -1.47,-0.43 -1.5,-0.95 -0.03,-0.52 0.62,-1 1.43,-1 h 6.31 c 0.81,0 1.47,0.43 1.48,1 0.01,0.57 -0.64,0.95 -1.44,0.95 z"
       style="opacity:0.5;fill:#ffffff"
       id="path564" />
    <path
       d="m 162.57,117.34 a 2.13,2.13 0 0 1 -2.1,3 4.44,4.44 0 0 1 -3.94,-3 2.13,2.13 0 0 1 2.08,-3 4.42,4.42 0 0 1 3.96,3 z"
       style="fill:#ffffff"
       id="path566" />
    <path
       d="m 170.71,117.39 a 2.2,2.2 0 0 1 -2.2,3 4.27,4.27 0 0 1 -3.84,-3 2.21,2.21 0 0 1 2.18,-3 4.24,4.24 0 0 1 3.86,3 z"
       style="fill:#ffffff"
       id="path568" />
    <path
       d="m 178.94,117.34 a 2.27,2.27 0 0 1 -2.29,3 4.09,4.09 0 0 1 -3.75,-3 2.28,2.28 0 0 1 2.28,-3 4.06,4.06 0 0 1 3.76,3 z"
       style="fill:#ffffff"
       id="path570" />
    <polygon
       points="159.84,106.44 100.38,106.44 127.33,178.47 "
       style="opacity:0.1;fill:#ffffff"
       id="polygon572" />
    <polygon
       points="176.86,198.93 145.85,198.93 199.78,106.44 256.23,106.44 "
       style="opacity:0.1;fill:#ffffff"
       id="polygon574" />
    <polygon
       points="296.52,106.44 280.56,105.98 196.5,198.93 209.45,198.93 "
       style="opacity:0.1;fill:#ffffff"
       id="polygon576" />
    <polygon
       points="307.33,198.93 297.16,198.93 389.54,106.44 402.58,106.44 "
       style="opacity:0.1;fill:#ffffff"
       id="polygon578" />
  </g>
  <g
     id="freepik--speech-bubbles--inject-11"
     transform="translate(0,-46)">
    <path
       d="m 171.9,239.07 h -21.09 a 5,5 0 0 0 -5,5 v 10.26 a 5,5 0 0 0 5,5 h 5.51 l 4.18,9.47 5.89,-9.47 h 5.51 a 5,5 0 0 0 5,-5 V 244 a 5,5 0 0 0 -5,-4.93 z"
       style="fill:#ffffff;stroke:#263238;stroke-linecap:round;stroke-linejoin:round"
       id="path581" />
    <path
       d="m 158.42,244.94 a 1,1 0 0 1 1,-1 1,1 0 0 1 1,0.93 1,1 0 0 1 -1,1 1,1 0 0 1 -1,-0.93 z m 0.22,2.09 h 1.61 v 6.86 h -1.61 z"
       style="fill:#263238"
       id="path583" />
    <path
       d="m 164.12,246.67 v 0.41 H 166 v 1.29 h -1.83 v 5.52 h -1.61 v -5.52 h -1.13 v -1.29 h 1.13 v -0.43 a 2.22,2.22 0 0 1 2.45,-2.38 2.64,2.64 0 0 1 1.46,0.37 l -0.45,1.21 a 1.59,1.59 0 0 0 -0.89,-0.28 c -0.66,0 -1.01,0.37 -1.01,1.1 z"
       style="fill:#263238"
       id="path585" />
    <path
       d="M 236.12,240.5 H 215 a 5,5 0 0 0 -5,5 v 10.27 a 5,5 0 0 0 5,5 h 5.52 l 4.17,9.47 5.89,-9.47 h 5.52 a 5,5 0 0 0 5,-5 v -10.31 a 5,5 0 0 0 -4.98,-4.96 z"
       style="fill:#ffffff;stroke:#263238;stroke-linecap:round;stroke-linejoin:round"
       id="path587" />
    <path
       d="m 219.46,252.41 h -5.39 a 2.08,2.08 0 0 0 2.23,1.65 2.46,2.46 0 0 0 1.86,-0.75 l 0.86,1 a 3.85,3.85 0 0 1 -6.55,-2.4 3.41,3.41 0 0 1 3.54,-3.51 3.34,3.34 0 0 1 3.47,3.55 c 0,0.12 -0.01,0.31 -0.02,0.46 z m -5.4,-1.06 H 218 a 1.86,1.86 0 0 0 -1.94,-1.67 1.89,1.89 0 0 0 -2,1.67 z"
       style="fill:#263238"
       id="path589" />
    <path
       d="m 221,245.8 h 1.6 v 9.53 H 221 Z"
       style="fill:#263238"
       id="path591" />
    <path
       d="m 224,254.65 0.61,-1.22 a 4.62,4.62 0 0 0 2.39,0.68 c 1,0 1.44,-0.28 1.44,-0.76 0,-1.31 -4.24,-0.08 -4.24,-2.81 0,-1.3 1.17,-2.15 3,-2.15 a 5.51,5.51 0 0 1 2.57,0.59 l -0.62,1.22 a 3.78,3.78 0 0 0 -2,-0.51 c -1,0 -1.44,0.32 -1.44,0.77 0,1.39 4.24,0.15 4.24,2.84 0,1.28 -1.18,2.12 -3.11,2.12 A 5.4,5.4 0 0 1 224,254.65 Z"
       style="fill:#263238"
       id="path593" />
    <path
       d="m 237.77,252.41 h -5.39 a 2.08,2.08 0 0 0 2.23,1.65 2.46,2.46 0 0 0 1.86,-0.75 l 0.86,1 a 3.85,3.85 0 0 1 -6.55,-2.4 3.41,3.41 0 0 1 3.54,-3.51 3.34,3.34 0 0 1 3.47,3.55 c 0,0.12 -0.01,0.31 -0.02,0.46 z m -5.4,-1.06 h 3.89 a 1.86,1.86 0 0 0 -1.94,-1.67 1.89,1.89 0 0 0 -1.95,1.67 z"
       style="fill:#263238"
       id="path595" />
    <path
       d="m 298.38,239.9 h -21.1 a 5,5 0 0 0 -5,4.95 v 10.27 a 5,5 0 0 0 5,5 h 5.52 l 4.17,9.47 5.89,-9.47 h 5.52 a 5,5 0 0 0 5,-5 v -10.27 a 5,5 0 0 0 -5,-4.95 z"
       style="fill:#ffffff;stroke:#263238;stroke-linecap:round;stroke-linejoin:round"
       id="path597" />
    <path
       d="m 282.12,247.5 v 0.41 H 284 v 1.29 h -1.84 v 5.52 h -1.6 v -5.52 h -1.13 v -1.29 h 1.13 v -0.43 a 2.22,2.22 0 0 1 2.44,-2.38 2.54,2.54 0 0 1 1.45,0.37 l -0.45,1.21 a 1.54,1.54 0 0 0 -0.88,-0.28 c -0.65,0 -1,0.37 -1,1.1 z"
       style="fill:#263238"
       id="path599" />
    <path
       d="m 284.42,251.29 a 3.66,3.66 0 1 1 3.65,3.52 3.46,3.46 0 0 1 -3.65,-3.52 z m 5.69,0 a 2,2 0 1 0 -2,2.15 2,2 0 0 0 2,-2.15 z"
       style="fill:#263238"
       id="path601" />
    <path
       d="m 297.23,247.78 v 1.53 a 2.6,2.6 0 0 0 -0.37,0 1.87,1.87 0 0 0 -2,2.12 v 3.33 h -1.61 v -6.86 h 1.53 v 1 a 2.71,2.71 0 0 1 2.45,-1.12 z"
       style="fill:#263238"
       id="path603" />
    <path
       d="m 359.74,239.07 h -21.1 a 5,5 0 0 0 -5,5 v 10.26 a 5,5 0 0 0 5,5 h 5.52 l 4.17,9.47 5.89,-9.47 h 5.52 a 5,5 0 0 0 5,-5 V 244 a 5,5 0 0 0 -5,-4.93 z"
       style="fill:#ffffff;stroke:#263238;stroke-linecap:round;stroke-linejoin:round"
       id="path605" />
    <path
       d="m 346.45,246.69 h 5.92 V 248 h -5.92 z m 0,3.11 h 5.92 v 1.29 h -5.92 z"
       style="fill:#263238"
       id="path607" />
    <path
       d="M 204.06,227.19 H 183 a 5,5 0 0 0 -5,5 v 10.26 a 5,5 0 0 0 5,5 h 5.52 l 4.17,9.47 5.89,-9.47 h 5.52 a 5,5 0 0 0 5,-5 v -10.3 a 5,5 0 0 0 -5.04,-4.96 z"
       style="fill:#ffffff;stroke:#263238;stroke-linecap:round;stroke-linejoin:round"
       id="path609" />
    <path
       d="m 188.55,231.45 h 3.07 v 1.29 h -1.47 v 9.45 h 1.47 v 1.29 h -3.07 z"
       style="fill:#263238"
       id="path611" />
    <path
       d="m 195.6,243.48 v -1.29 h 1.45 v -9.45 h -1.45 v -1.29 h 3.05 v 12 z"
       style="fill:#263238"
       id="path613" />
    <path
       d="m 266.78,226.14 h -21.1 a 5,5 0 0 0 -5,5 v 10.26 a 5,5 0 0 0 5,5 h 5.52 l 4.18,9.47 5.89,-9.47 h 5.51 a 5,5 0 0 0 5,-5 v -10.3 a 5,5 0 0 0 -5,-4.96 z"
       style="fill:#ffffff;stroke:#263238;stroke-linecap:round;stroke-linejoin:round"
       id="path615" />
    <path
       d="m 251.94,236.38 c 0.51,0.16 0.76,0.51 0.76,1.31 v 2.44 a 0.86,0.86 0 0 0 1,1 h 0.27 v 1.29 h -0.65 a 1.91,1.91 0 0 1 -2.18,-2.1 v -2.64 c 0,-0.43 -0.22,-0.62 -0.58,-0.62 h -0.42 v -1.31 h 0.42 c 0.36,0 0.58,-0.19 0.58,-0.62 v -2.64 a 1.91,1.91 0 0 1 2.18,-2.1 h 0.65 v 1.29 h -0.27 a 0.86,0.86 0 0 0 -1,1 v 2.44 c 0,0.74 -0.25,1.09 -0.76,1.26 z"
       style="fill:#263238"
       id="path617" />
    <path
       d="M 261.74,235.72 V 237 h -0.44 c -0.35,0 -0.57,0.19 -0.57,0.62 v 2.64 a 1.91,1.91 0 0 1 -2.19,2.1 h -0.65 v -1.26 h 0.27 a 0.87,0.87 0 0 0 1,-1 v -2.44 c 0,-0.8 0.23,-1.15 0.74,-1.31 -0.51,-0.17 -0.74,-0.52 -0.74,-1.32 v -2.44 a 0.87,0.87 0 0 0 -1,-1 h -0.27 v -1.29 h 0.65 a 1.91,1.91 0 0 1 2.19,2.1 v 2.64 c 0,0.43 0.22,0.62 0.57,0.62 z"
       style="fill:#263238"
       id="path619" />
    <path
       d="m 328.84,224.06 h -21.1 a 5,5 0 0 0 -5,5 v 10.26 a 5,5 0 0 0 5,5 h 5.51 l 4.18,9.47 5.89,-9.47 h 5.52 a 5,5 0 0 0 5,-5 V 229 a 5,5 0 0 0 -5,-4.94 z"
       style="fill:#ffffff;stroke:#263238;stroke-linecap:round;stroke-linejoin:round"
       id="path621" />
    <path
       d="m 317.45,231.66 a 1.06,1.06 0 1 1 2.11,0 1.06,1.06 0 1 1 -2.11,0 z m 2.11,4.89 a 3,3 0 0 1 -0.3,1.11 l -0.66,1.81 h -1 l 0.52,-2 a 1,1 0 0 1 -0.61,-0.95 1.045,1.045 0 1 1 2.09,0 z"
       style="fill:#263238"
       id="path623" />
    <path
       d="m 246.36,403.5 h 21.09 a 5,5 0 0 0 5,-5 v -10.22 a 5,5 0 0 0 -5,-5 h -5.51 l -1.61,-9.47 -8.46,9.47 h -5.51 a 5,5 0 0 0 -5,5 v 10.26 a 5,5 0 0 0 5,4.96 z"
       style="fill:#ffffff;stroke:#263238;stroke-linecap:round;stroke-linejoin:round"
       id="path625" />
    <path
       d="m 253.77,391.3 -4.43,1.7 4.43,1.65 V 396 l -5.92,-2.3 v -1.39 l 5.92,-2.3 z"
       style="fill:#263238"
       id="path627" />
    <path
       d="m 258.45,386.63 h 1.43 l -4.24,12.11 h -1.43 z"
       style="fill:#263238"
       id="path629" />
    <path
       d="m 266.11,392.26 v 1.39 l -5.92,2.3 v -1.34 l 4.43,-1.65 -4.43,-1.66 V 390 Z"
       style="fill:#263238"
       id="path631" />
    <path
       d="m 112.24,328.75 h 21.09 a 5,5 0 0 0 5,-4.95 v -10.27 a 5,5 0 0 0 -5,-5 h -5.51 l 1.2,-9.47 -11.27,9.47 h -5.51 a 5,5 0 0 0 -5,5 v 10.27 a 5,5 0 0 0 5,4.95 z"
       style="fill:#ffffff;stroke:#263238;stroke-linecap:round;stroke-linejoin:round"
       id="path633" />
    <path
       d="m 118.49,322.25 a 1,1 0 0 1 1,-1 1,1 0 0 1 1,1 1,1 0 0 1 -1,1 1,1 0 0 1 -1,-1 z m 0.09,-8.09 h 1.9 l -0.32,6 h -1.27 z"
       style="fill:#263238"
       id="path635" />
    <path
       d="m 122.14,316.46 h 5.92 v 1.29 h -5.92 z m 0,3.11 h 5.92 v 1.29 h -5.92 z"
       style="fill:#263238"
       id="path637" />
  </g>
  <g
     id="freepik--Mouse--inject-11"
     transform="translate(0,-46)">
    <path
       d="m 450,317.12 a 71.82,71.82 0 0 1 -1,11.86 c -2.9,17.31 -12,29.93 -22.76,29.93 a 13.68,13.68 0 0 1 -2.86,-0.3 c -11.75,-2.49 -20.86,-20.11 -20.86,-41.49 0,-23.08 10.62,-31.25 23.72,-31.25 13.1,0 23.76,8.13 23.76,31.25 z"
       style="fill:#ffffff"
       id="path640" />
    <g
       clip-path="url(#freepik--clip-path-3--inject-11)"
       id="g646">
      <path
         d="m 441.43,317.38 c 0.88,12.38 -1.24,24.82 -4.81,36.71 8.94,-7.34 13.05,-18.88 16.77,-29.83 2.7,-7.95 5.43,-16.15 4.94,-24.53 -0.49,-8.38 -5,-17.11 -12.84,-20 a 17.13,17.13 0 0 0 -12.13,0.19 c -6.59,2.65 -3,4.79 -0.21,9.53 a 64.6,64.6 0 0 1 8.28,27.93 z"
         style="fill:#5e66d6"
         id="path642" />
      <path
         d="m 441.43,317.38 c 0.88,12.38 -1.24,24.82 -4.81,36.71 8.94,-7.34 13.05,-18.88 16.77,-29.83 2.7,-7.95 5.43,-16.15 4.94,-24.53 -0.49,-8.38 -5,-17.11 -12.84,-20 a 17.13,17.13 0 0 0 -12.13,0.19 c -6.59,2.65 -3,4.79 -0.21,9.53 a 64.6,64.6 0 0 1 8.28,27.93 z"
         style="opacity:0.5;fill:#ffffff"
         id="path644" />
    </g>
    <path
       d="m 450,317.12 a 71.82,71.82 0 0 1 -1,11.86 c -2.9,17.31 -12,29.93 -22.76,29.93 a 13.68,13.68 0 0 1 -2.86,-0.3 c -11.75,-2.49 -20.86,-20.11 -20.86,-41.49 0,-23.08 10.62,-31.25 23.72,-31.25 13.1,0 23.76,8.13 23.76,31.25 z"
       style="fill:none;stroke:#263238;stroke-miterlimit:10"
       id="path648" />
    <path
       d="m 439.05,338.35 a 41,41 0 0 1 -7.79,14.6"
       style="fill:#ffffff;stroke:#263238;stroke-miterlimit:10"
       id="path650" />
    <path
       d="m 439.8,335.45 c -0.12,0.56 -0.26,1.12 -0.41,1.68"
       style="fill:none;stroke:#263238;stroke-miterlimit:10"
       id="path652" />
    <path
       d="m 439.74,317.06 a 40.77,40.77 0 0 1 0.47,16.28"
       style="fill:#ffffff;stroke:#263238;stroke-miterlimit:10"
       id="path654" />
    <path
       d="m 402.57,317.12 c 0,0 27,-10.66 47.46,0"
       style="fill:none;stroke:#263238;stroke-miterlimit:10"
       id="path656" />
    <path
       d="m 426.3,285.87 c 0,0 2.7,10 3,26.27"
       style="fill:#ffffff;stroke:#263238;stroke-miterlimit:10"
       id="path658" />
    <path
       d="m 430.07,298 c 0.34,3.11 -0.2,5.75 -1.21,5.91 -1.01,0.16 -2.11,-2.23 -2.45,-5.33 -0.34,-3.1 0.19,-5.76 1.2,-5.92 1.01,-0.16 2.11,2.27 2.46,5.34 z"
       style="fill:#bfbfbf;stroke:#263238;stroke-linecap:round;stroke-linejoin:round"
       id="path660" />
    <path
       d="M 415.66,366.91 H 384 a 7.75,7.75 0 0 1 -7.69,-6.71 5.33,5.33 0 0 1 -0.09,-1.07 v -74.59 a 5.63,5.63 0 0 1 0.09,-1.08 7.74,7.74 0 0 1 7.69,-6.7 h 89.72 a 7.66,7.66 0 0 1 3.73,1"
       style="fill:none;stroke:#263238;stroke-miterlimit:10"
       id="path662" />
  </g>
</svg>
