<?xml version="1.0" encoding="UTF-8" standalone="no"?>
<svg
   xmlns:dc="http://purl.org/dc/elements/1.1/"
   xmlns:cc="http://creativecommons.org/ns#"
   xmlns:rdf="http://www.w3.org/1999/02/22-rdf-syntax-ns#"
   xmlns:svg="http://www.w3.org/2000/svg"
   xmlns="http://www.w3.org/2000/svg"
   xmlns:sodipodi="http://sodipodi.sourceforge.net/DTD/sodipodi-0.dtd"
   xmlns:inkscape="http://www.inkscape.org/namespaces/inkscape"
   width="378"
   height="201"
   viewBox="0 0 378 201"
   fill="none"
   version="1.1"
   id="svg83"
   sodipodi:docname="coding.svg"
   inkscape:version="1.0.2-2 (e86c870879, 2021-01-15)">
  <metadata
     id="metadata87">
    <rdf:RDF>
      <cc:Work
         rdf:about="">
        <dc:format>image/svg+xml</dc:format>
        <dc:type
           rdf:resource="http://purl.org/dc/dcmitype/StillImage" />
      </cc:Work>
    </rdf:RDF>
  </metadata>
  <sodipodi:namedview
     pagecolor="#ffffff"
     bordercolor="#666666"
     borderopacity="1"
     objecttolerance="10"
     gridtolerance="10"
     guidetolerance="10"
     inkscape:pageopacity="0"
     inkscape:pageshadow="2"
     inkscape:window-width="1366"
     inkscape:window-height="705"
     id="namedview85"
     showgrid="false"
     inkscape:zoom="1.3383085"
     inkscape:cx="132.40001"
     inkscape:cy="85.599888"
     inkscape:window-x="-8"
     inkscape:window-y="-8"
     inkscape:window-maximized="1"
     inkscape:current-layer="undraw_programming_2svr 1" />
  <g
     id="undraw_programming_2svr 1"
     clip-path="url(#clip0)">
    <path
       id="Vector"
       opacity="0.1"
       d="M348.39 158.785C347.97 159.691 347.551 160.585 347.133 161.467C346.481 162.836 345.837 164.179 345.202 165.496C344.919 166.079 344.636 166.652 344.361 167.224C341.245 173.591 338.335 179.222 335.864 183.852C333.622 188.048 330.292 191.564 326.224 194.031C322.156 196.498 317.5 197.826 312.743 197.875L257.793 198.473H257.213L252.502 198.524L248.473 198.567L236.117 198.701H235.617L229.327 198.77H229.134L190.363 199.191L155.755 199.553L151.73 199.596L126.728 199.868H126.699L110.484 200.042H110.31L59.0376 200.597L43.6994 200.763C40.4262 200.8 37.1668 200.333 34.0356 199.379C28.5866 197.733 23.6896 194.632 19.8714 190.411C13.2839 183.153 8.48281 174.685 5.25792 165.496C4.7917 164.17 4.35688 162.827 3.95347 161.467C-7.21047 123.728 6.39932 75.0394 30.894 42.4571C31.9207 41.0946 32.9642 39.766 34.0247 38.4712L34.0501 38.4422C41.5833 29.1951 50.0296 21.4699 59.0267 15.9767C74.97 6.22591 92.6345 3.47932 110.009 11.6648C124.709 18.5928 138.435 21.8503 151.741 22.7345C153.085 22.8214 154.429 22.8867 155.766 22.9265C186.287 23.8867 214.891 12.8895 248.48 5.79109C249.817 5.50846 251.158 5.22946 252.51 4.96494C276.472 0.196446 303.053 -2.31825 334.665 2.96841C337.949 3.50492 341.19 4.27998 344.361 5.28743C345.755 5.73674 347.098 6.21987 348.39 6.73682C363.479 12.875 371.707 24.2165 375.204 38.4278C375.535 39.7467 375.821 41.0886 376.063 42.4534C382.263 76.6373 364.105 125.127 348.39 158.785Z"
       fill="#5E3AEE" />
    <g
       id="Group"
       opacity="0.1">
      <path
         id="Vector_2"
         opacity="0.1"
         d="M59.0264 15.9761V200.636L43.6883 200.802C40.4151 200.839 37.1557 200.373 34.0244 199.418V38.4416H34.0498C41.583 29.1837 50.0293 21.4584 59.0264 15.9761Z"
         fill="#5E3AEE" />
      <path
         id="Vector_3"
         opacity="0.1"
         d="M376.081 42.4562H30.8938C31.9204 41.0938 32.964 39.7652 34.0245 38.4704V38.4414H375.222C375.553 39.7531 375.839 41.0914 376.081 42.4562Z"
         fill="#5E3AEE" />
      <path
         id="Vector_4"
         opacity="0.1"
         d="M348.39 6.73976V161.462H347.133C346.481 162.832 345.837 164.175 345.202 165.492C344.919 166.075 344.636 166.647 344.361 167.22V5.27588C345.755 5.72519 347.098 6.21315 348.39 6.73976Z"
         fill="#5E3AEE" />
      <path
         id="Vector_5"
         opacity="0.1"
         d="M252.509 4.95312V198.537L248.48 198.581V5.77928C249.817 5.49665 251.158 5.21764 252.509 4.95312Z"
         fill="#5E3AEE" />
      <path
         id="Vector_6"
         opacity="0.1"
         d="M155.766 22.9147V199.588L151.74 199.632V22.7227C153.085 22.8096 154.429 22.8603 155.766 22.9147Z"
         fill="#5E3AEE" />
      <path
         id="Vector_7"
         opacity="0.1"
         d="M347.133 161.466C346.481 162.835 345.837 164.178 345.202 165.495H5.25767C4.79145 164.169 4.35663 162.826 3.95322 161.466H347.133Z"
         fill="#5E3AEE" />
    </g>
    <path
       id="Vector_8"
       d="M83.5574 96.3228H76.6728V117.216H83.5574V96.3228Z"
       fill="#3F3D56" />
    <path
       id="Vector_9"
       d="M268.837 95.2358H261.952V117.339H268.837V95.2358Z"
       fill="#3F3D56" />
    <path
       id="Vector_10"
       d="M312.742 193.367V198.077L257.694 198.585L257.107 198.595L236.186 198.787L235.685 198.795L229.326 198.849H229.138L190.374 199.208L126.742 199.798H126.688L110.509 199.951L110.335 199.954L38.4451 200.614V195.178L55.3486 185.033L89.2644 184.75L89.9891 184.746L90.2282 184.743L90.9529 184.732L107.237 184.598L107.965 184.594L108.197 184.591L108.922 184.587L114.143 184.544L114.281 184.54L127.162 184.431H127.267L227.783 183.583L230.243 183.565H230.489L232.366 183.547L246.009 183.435L246.733 183.424L247.404 183.417H247.752L251.995 183.384L252.835 183.373L253.962 183.366L257.495 183.333L263.101 183.286L263.825 183.279L265.086 183.272H265.322L292.393 183.04L312.742 193.367Z"
       fill="#65617D" />
    <path
       id="Vector_11"
       opacity="0.2"
       d="M312.742 193.367V198.077L257.694 198.585L257.107 198.595L236.186 198.787L235.685 198.795L229.326 198.849H229.138L190.374 199.208L126.742 199.798H126.688L110.509 199.951L110.335 199.954L38.4451 200.614V195.178L55.3486 185.033L89.2644 184.75L89.9891 184.746L90.2282 184.743L90.9529 184.732L107.237 184.598L107.965 184.594L108.197 184.591L108.922 184.587L114.143 184.544L114.281 184.54L127.162 184.431H127.267L227.783 183.583L230.243 183.565H230.489L232.366 183.547L246.009 183.435L246.733 183.424L247.404 183.417H247.752L251.995 183.384L252.835 183.373L253.962 183.366L257.495 183.333L263.101 183.286L263.825 183.279L265.086 183.272H265.322L292.393 183.04L312.742 193.367Z"
       fill="black" />
    <path
       id="Vector_12"
       d="M107.291 175.253V184.127C107.291 184.547 107.172 184.959 106.948 185.314C106.723 185.67 106.403 185.954 106.023 186.134C105.74 186.272 105.431 186.346 105.117 186.352L92.4711 186.62C92.1334 186.628 91.7984 186.557 91.4928 186.413C91.1065 186.236 90.7791 185.952 90.5498 185.594C90.3205 185.236 90.1988 184.82 90.1992 184.395V175.253H107.291Z"
       fill="#3F3D56" />
    <path
       id="Vector_13"
       opacity="0.1"
       d="M107.291 175.253V184.127C107.291 184.547 107.172 184.959 106.948 185.314C106.723 185.67 106.403 185.954 106.023 186.134C105.74 186.272 105.431 186.346 105.117 186.352L92.4711 186.62C92.1334 186.628 91.7984 186.557 91.4928 186.413C91.1065 186.236 90.7791 185.952 90.5498 185.594C90.3205 185.236 90.1988 184.82 90.1992 184.395V175.253H107.291Z"
       fill="black" />
    <path
       id="Vector_14"
       d="M108.016 175.253V184.127C108.016 184.547 107.897 184.959 107.673 185.314C107.448 185.67 107.127 185.954 106.748 186.134C106.465 186.272 106.156 186.346 105.842 186.352L93.1959 186.62C92.8581 186.628 92.5232 186.557 92.2175 186.413C91.8312 186.236 91.5039 185.952 91.2745 185.594C91.0452 185.236 90.9235 184.82 90.924 184.395V175.253H108.016Z"
       fill="#3F3D56" />
    <path
       id="Vector_15"
       d="M263.825 175.253H246.733V186.667H263.825V175.253Z"
       fill="#3F3D56" />
    <path
       id="Vector_16"
       opacity="0.1"
       d="M263.825 175.253H246.733V186.667H263.825V175.253Z"
       fill="black" />
    <path
       id="Vector_17"
       d="M263.101 175.253H246.009V186.667H263.101V175.253Z"
       fill="#3F3D56" />
    <path
       id="Vector_18"
       opacity="0.1"
       d="M83.5574 96.3193V98.3956L76.6728 98.218V96.3193H83.5574Z"
       fill="black" />
    <path
       id="Vector_19"
       d="M128.873 37.8291L120.6 97.2541C120.548 97.6337 120.357 97.9806 120.065 98.2286C119.773 98.4766 119.4 98.6083 119.017 98.5984L52.7796 96.8809L51.5222 96.8483C51.3033 96.8431 51.0879 96.7918 50.8902 96.6978C50.6924 96.6038 50.5167 96.4691 50.3744 96.3026C50.2322 96.1361 50.1267 95.9415 50.0647 95.7315C50.0027 95.5214 49.9858 95.3007 50.0148 95.0836L59.3018 32.8758C59.3617 32.4905 59.5639 32.1416 59.8684 31.898C60.173 31.6545 60.5578 31.5341 60.9469 31.5605L127.423 36.0608C127.638 36.0732 127.847 36.13 128.039 36.2275C128.23 36.325 128.399 36.4611 128.535 36.6273C128.672 36.7934 128.772 36.986 128.83 37.1928C128.888 37.3997 128.902 37.6163 128.873 37.8291Z"
       fill="#65617D" />
    <path
       id="Vector_20"
       d="M63.7478 35.9302L56.7437 90.7643L117.618 92.6956L125.104 39.7928L63.7478 35.9302Z"
       fill="#5E3AEE"
       style="fill:#5b63ac;fill-opacity:1" />
    <path
       id="Vector_21"
       d="M211.589 35.0823H141.29C140.224 35.0823 139.359 35.947 139.359 37.0136V95.9567C139.359 97.0233 140.224 97.888 141.29 97.888H211.589C212.656 97.888 213.521 97.0233 213.521 95.9567V37.0136C213.521 35.947 212.656 35.0823 211.589 35.0823Z"
       fill="#65617D" />
    <path
       id="Vector_22"
       d="M210.256 39.311H142.859V91.6087H210.256V39.311Z"
       fill="#5E3AEE"
       style="fill:#5b63ac;fill-opacity:1" />
    <path
       id="Vector_23"
       opacity="0.1"
       d="M268.837 95.2322V96.6055L261.952 96.7468V95.2322H268.837Z"
       fill="black" />
    <path
       id="Vector_24"
       d="M299.901 94.0726C299.911 94.2227 299.89 94.3733 299.84 94.5152C299.79 94.6572 299.712 94.7876 299.611 94.8986C299.509 95.0096 299.386 95.0989 299.249 95.1612C299.112 95.2235 298.964 95.2575 298.814 95.2611L230.982 96.6633C230.7 96.6692 230.427 96.5682 230.217 96.3807C230.006 96.1931 229.875 95.933 229.848 95.6524L224.018 35.0389C224.004 34.8885 224.02 34.7368 224.066 34.5929C224.112 34.4489 224.186 34.3159 224.285 34.2017C224.384 34.0875 224.505 33.9946 224.641 33.9286C224.777 33.8626 224.925 33.8249 225.076 33.8178L292.393 30.4697L293.118 30.4334C293.406 30.4182 293.688 30.5156 293.906 30.7049C294.124 30.8942 294.259 31.1606 294.284 31.448L299.901 94.0726Z"
       fill="#65617D" />
    <path
       id="Vector_25"
       d="M227.891 37.3799L289.371 34.3579L294.563 89.4348L233.569 90.8842L227.891 37.3799Z"
       fill="#5E3AEE"
       style="fill:#5b63ac;fill-opacity:1" />
    <path
       id="Vector_26"
       opacity="0.1"
       d="M299.901 94.0726C299.911 94.2227 299.89 94.3733 299.84 94.5152C299.79 94.6572 299.712 94.7876 299.611 94.8986C299.509 95.0096 299.386 95.0989 299.249 95.1612C299.112 95.2235 298.964 95.2575 298.814 95.2611L292.393 30.4697L293.118 30.4334C293.406 30.4182 293.688 30.5156 293.906 30.7049C294.124 30.8942 294.259 31.1606 294.284 31.448L299.901 94.0726Z"
       fill="black" />
    <path
       id="Vector_27"
       opacity="0.1"
       d="M60.9578 31.5568L52.7796 96.8808L51.5222 96.8482C51.3033 96.843 51.0879 96.7918 50.8902 96.6977C50.6924 96.6037 50.5167 96.4691 50.3744 96.3026C50.2322 96.1361 50.1267 95.9414 50.0647 95.7314C50.0027 95.5214 49.9858 95.3006 50.0148 95.0836L59.3018 32.8757C59.361 32.4877 59.5644 32.1364 59.8714 31.8918C60.1784 31.6473 60.5664 31.5277 60.9578 31.5568Z"
       fill="black" />
    <path
       id="Vector_28"
       opacity="0.1"
       d="M83.5574 111.027H76.6728V117.216H83.5574V111.027Z"
       fill="black" />
    <path
       id="Vector_29"
       opacity="0.1"
       d="M108.016 175.25V177.05L90.924 177.507V175.25H108.016Z"
       fill="black" />
    <path
       id="Vector_30"
       d="M138.181 113.183V174.13C138.177 174.502 138.03 174.858 137.77 175.125C137.51 175.391 137.158 175.547 136.786 175.561L67.3423 177.409H67.3242C66.9461 177.405 66.5848 177.252 66.3173 176.985C66.0499 176.718 65.8976 176.356 65.8929 175.978V113.183C65.8976 112.805 66.0499 112.444 66.3173 112.176C66.5848 111.909 66.9461 111.757 67.3242 111.752H136.75C137.128 111.757 137.49 111.909 137.757 112.176C138.024 112.444 138.177 112.805 138.181 113.183Z"
       fill="#65617D" />
    <path
       id="Vector_31"
       opacity="0.1"
       d="M67.3423 111.752V177.409H67.3242C66.9461 177.405 66.5848 177.252 66.3173 176.985C66.0499 176.718 65.8976 176.356 65.8929 175.978V113.183C65.8976 112.805 66.0499 112.444 66.3173 112.176C66.5848 111.909 66.9461 111.757 67.3242 111.752H67.3423Z"
       fill="black" />
    <path
       id="Vector_32"
       d="M70.5129 115.643H134.83V169.361L70.5129 170.811V115.643Z"
       fill="#D4DFEC" />
    <path
       id="Vector_33"
       opacity="0.1"
       d="M268.837 111.027H261.952V117.339H268.837V111.027Z"
       fill="black" />
    <path
       id="Vector_34"
       opacity="0.1"
       d="M263.101 175.25V177.572L246.009 177.116V175.25H263.101Z"
       fill="black" />
    <path
       id="Vector_35"
       d="M285.657 113.183V175.978C285.652 176.359 285.497 176.723 285.226 176.991C284.955 177.259 284.589 177.409 284.207 177.409L214.749 175.561C214.377 175.547 214.025 175.391 213.765 175.125C213.506 174.858 213.358 174.502 213.354 174.13V113.183C213.359 112.805 213.511 112.444 213.778 112.176C214.046 111.909 214.407 111.757 214.785 111.752H284.211C284.592 111.753 284.957 111.904 285.227 112.171C285.498 112.439 285.652 112.803 285.657 113.183Z"
       fill="#65617D" />
    <path
       id="Vector_36"
       opacity="0.1"
       d="M285.657 113.183V175.978C285.652 176.359 285.497 176.723 285.226 176.991C284.955 177.259 284.589 177.409 284.207 177.409V111.752C284.589 111.752 284.955 111.902 285.226 112.17C285.497 112.438 285.652 112.802 285.657 113.183Z"
       fill="black" />
    <path
       id="Vector_37"
       d="M281.037 115.643H216.72V169.361L281.037 170.811V115.643Z"
       fill="#D4DFEC" />
    <path
       id="Vector_38"
       d="M211.557 113.183V174.13C211.552 174.502 211.405 174.858 211.145 175.125C210.886 175.391 210.534 175.547 210.162 175.561L140.718 177.409C140.336 177.409 139.971 177.259 139.699 176.991C139.428 176.723 139.273 176.359 139.268 175.978V113.183C139.273 112.805 139.425 112.444 139.693 112.176C139.96 111.909 140.322 111.757 140.7 111.752H210.125C210.504 111.757 210.865 111.909 211.132 112.176C211.4 112.444 211.552 112.805 211.557 113.183Z"
       fill="#65617D" />
    <path
       id="Vector_39"
       d="M143.888 115.643H208.205V169.361L143.888 170.811V115.643Z"
       fill="#D4DFEC" />
    <path
       id="Vector_40"
       opacity="0.1"
       d="M312.742 193.367V198.077L257.694 198.585L257.107 198.596L236.186 198.788L235.685 198.795L229.326 198.849H229.138L190.374 199.208L126.742 199.799H126.688L110.509 199.951L110.335 199.954L38.4451 200.614V195.179L111.824 194.697H111.998L126.851 194.595H126.92L229.493 193.918H229.598L229.66 193.914H229.83L231.566 193.903H232.095L259.086 193.722L260.68 193.715L261.035 193.711L312.742 193.367Z"
       fill="black" />
    <path
       id="Vector_41"
       d="M176.558 117.216C186.83 117.216 195.157 108.889 195.157 98.6166C195.157 88.3445 186.83 80.0173 176.558 80.0173C166.285 80.0173 157.958 88.3445 157.958 98.6166C157.958 108.889 166.285 117.216 176.558 117.216Z"
       fill="#FBBEBE" />
    <path
       id="Vector_42"
       d="M195.16 136.663C195.16 136.663 159.107 141.011 162.549 136.663C163.796 135.09 164.14 130.43 164.071 125.122C164.049 123.51 163.991 121.839 163.908 120.176C163.509 112.204 162.549 104.414 162.549 104.414C162.549 104.414 194.073 89.5577 190.45 101.334C189.001 106.092 189.475 112.773 190.577 119.046C190.899 120.875 191.272 122.669 191.664 124.372C192.619 128.526 193.786 132.628 195.16 136.663Z"
       fill="#FBBEBE" />
    <path
       id="Vector_43"
       opacity="0.1"
       d="M195.16 136.663C195.16 136.663 159.107 141.011 162.549 136.663C163.796 135.091 164.14 130.431 164.071 125.122C169.568 122.774 176.561 124.524 176.561 124.524C183.924 123.057 188.645 123.343 191.664 124.372C192.619 128.526 193.786 132.629 195.16 136.663Z"
       fill="black" />
    <path
       id="Vector_44"
       d="M126.727 200.208V199.904L190.363 199.212L229.134 198.849H229.243L229.203 199.385L229.257 198.849H229.326V198.788L229.823 193.914L230.011 192.07L230.069 191.493L230.12 191.012L232.359 183.544L234.598 176.086L236.483 169.807L239.36 160.212C239.36 160.212 237.729 156.407 236.823 155.32C235.917 154.233 235.012 146.805 235.012 146.805C235.012 146.805 227.279 139.439 223.898 138.591C222.482 138.228 219.684 137.746 216.713 137.141C215.601 136.917 214.459 136.678 213.361 136.417C212.742 136.275 212.133 136.127 211.549 135.978C210.414 135.695 209.295 135.349 208.198 134.942C207.622 134.733 207.075 134.454 206.567 134.112C203.904 132.159 197.23 131.938 196.972 131.938C196.972 131.93 196.972 131.921 196.972 131.913V131.88C196.982 131.728 196.982 131.576 196.972 131.423C196.972 131.279 196.972 131.108 196.94 130.916C196.94 130.858 196.94 130.797 196.914 130.735C196.896 130.605 196.874 130.467 196.842 130.322C196.831 130.257 196.816 130.193 196.798 130.13C196.693 129.693 196.541 129.269 196.345 128.865C196.32 128.807 196.287 128.746 196.258 128.688C196.081 128.353 195.875 128.034 195.642 127.735C195.595 127.673 195.545 127.608 195.49 127.546C195.193 127.196 194.863 126.876 194.505 126.59C194.407 126.514 194.305 126.434 194.2 126.361C194.142 126.314 194.08 126.27 194.015 126.231L193.693 126.021L193.392 125.847C193.128 125.702 192.849 125.561 192.544 125.427C192.45 125.383 192.349 125.343 192.247 125.303C192.146 125.264 191.986 125.202 191.852 125.151H191.831L191.559 125.043C191.352 124.974 191.142 124.912 190.921 124.85L190.584 124.764L190.222 124.68L189.859 124.604C189.497 124.532 189.109 124.466 188.703 124.416L188.29 124.365L187.866 124.321L187.428 124.285L186.805 124.249L186.08 124.224C182.884 124.223 179.697 124.562 176.572 125.235C174.401 124.752 172.178 124.547 169.956 124.626H169.64L169.278 124.648H169.046L168.579 124.691C168.423 124.691 168.263 124.724 168.108 124.745C167.952 124.767 167.789 124.785 167.633 124.811L167.394 124.85C167.158 124.89 166.919 124.934 166.669 124.985C166.589 124.999 166.51 125.017 166.43 125.039C166.115 125.108 165.799 125.191 165.488 125.285C165.332 125.329 165.176 125.38 165.02 125.434C164.941 125.456 164.865 125.485 164.789 125.514L164.557 125.597L164.328 125.688L164.057 125.796C163.919 125.854 163.785 125.916 163.651 125.981C163.575 126.014 163.499 126.05 163.426 126.09C163.354 126.13 163.278 126.162 163.209 126.202C162.389 126.625 161.632 127.159 160.958 127.789L160.774 127.967L160.593 128.151C160.531 128.213 160.473 128.278 160.415 128.344C160.179 128.602 159.959 128.874 159.755 129.159C159.698 129.235 159.643 129.311 159.589 129.391C159.359 129.73 159.151 130.083 158.966 130.449C158.918 130.536 158.875 130.626 158.832 130.713C158.536 131.325 158.293 131.962 158.107 132.616C158.039 132.857 157.978 133.099 157.922 133.34C157.922 133.34 150.251 136.725 143.888 139.174C142.196 139.826 140.602 140.417 139.268 140.863C138.881 140.993 138.518 141.113 138.181 141.225C137.45 141.489 136.69 141.664 135.917 141.747C135.552 141.753 135.189 141.787 134.83 141.848C131.905 142.323 126.894 144.385 126.347 146.454C126.303 146.619 126.29 146.791 126.311 146.961C126.311 146.961 126.311 146.986 126.311 147.001C126.673 149.537 124.137 149.175 124.137 149.175C124.137 149.175 123.231 155.878 121.963 157.69C121.046 158.995 120.419 161.904 120.339 164.1C120.294 164.784 120.347 165.471 120.499 166.14C120.499 166.158 120.499 166.176 120.499 166.191C120.644 166.676 120.296 168.002 119.705 169.702C119.064 171.568 118.129 173.887 117.23 176.076C115.875 179.38 114.6 182.38 114.52 183.04C114.487 183.333 114.393 183.859 114.263 184.536C113.734 187.298 112.56 192.555 111.98 194.682C111.549 196.269 110.922 198.443 110.491 199.936C110.491 199.98 110.465 200.023 110.454 200.063L126.699 199.904V200.208H126.749H126.727Z"
       fill="#5E3AEE"
       style="fill:#27a7ce;fill-opacity:1" />
    <path
       id="Vector_45"
       opacity="0.1"
       d="M132.656 157.498C132.656 157.498 153.309 168.188 160.737 166.919L132.656 157.498Z"
       fill="black" />
    <path
       id="Vector_46"
       opacity="0.1"
       d="M174.688 153.15C174.688 153.15 194.798 159.672 201.502 160.578C208.205 161.484 174.688 153.15 174.688 153.15Z"
       fill="black" />
    <path
       id="Vector_47"
       opacity="0.1"
       d="M196.994 132.163C186.486 134.098 166.702 133.681 158.15 133.387C161.285 122.155 176.568 125.974 176.568 125.974C195.487 122.198 196.936 130.032 196.994 132.163Z"
       fill="black" />
    <path
       id="Vector_48"
       d="M196.994 131.438C186.486 133.373 166.702 132.956 158.15 132.663C161.285 121.43 176.568 125.249 176.568 125.249C195.487 121.473 196.936 129.307 196.994 131.438Z"
       fill="#5E3AEE"
       style="fill:#27a7ce;fill-opacity:1" />
    <path
       id="Vector_49"
       d="M252.774 180.96C252.774 180.96 265.152 179.058 265.394 184.493C265.637 189.928 259.082 193.726 259.082 193.726L252.774 180.96Z"
       fill="#FBBEBE" />
    <path
       id="Vector_50"
       opacity="0.1"
       d="M190.577 119.046C190.044 119.283 189.5 119.494 188.946 119.676C185.04 121.024 181.101 122.383 176.989 122.876C172.876 123.368 168.561 122.934 164.973 120.883C164.597 120.67 164.234 120.434 163.886 120.176C163.488 112.204 162.527 104.414 162.527 104.414C162.527 104.414 194.052 89.5577 190.428 101.334C188.986 106.092 189.475 112.773 190.577 119.046Z"
       fill="black" />
    <path
       id="Vector_51"
       d="M171.456 69.5454C170.939 69.682 170.397 69.6958 169.873 69.5857C169.35 69.4756 168.859 69.2447 168.441 68.9113L169.195 69.9585C168.75 70.0098 168.3 69.9634 167.876 69.8225C167.452 69.6817 167.063 69.4499 166.738 69.1432C166.67 70.0807 166.708 71.0228 166.854 71.9514C165.607 72.0116 164.379 71.6263 163.39 70.8644C163.371 71.1913 163.452 71.5162 163.623 71.7955C163.794 72.0747 164.046 72.2948 164.346 72.4261C163.094 72.2765 161.829 72.5877 160.789 73.3018C159.749 74.0159 159.004 75.084 158.694 76.3069L160.585 76.4808C159.099 76.7983 157.765 77.6123 156.802 78.7889C156.223 79.5136 155.781 80.4412 156.034 81.3254C156.288 82.2095 157.513 82.7748 158.179 82.1443C157.231 83.2762 156.542 84.602 156.16 86.0285C155.778 87.455 155.713 88.9478 155.969 90.4022C156.141 91.0219 156.197 91.668 156.136 92.3081C156.016 92.906 155.639 93.4242 155.451 94.0075C155.088 95.0656 155.433 96.2142 155.755 97.2687L157.455 102.856C158.071 104.874 158.683 106.896 159.487 108.849C160.057 110.084 160.541 111.357 160.937 112.658C161.393 114.411 161.411 116.332 162.386 117.865C163.054 118.829 163.947 119.616 164.988 120.158C168.571 122.209 172.901 122.644 177.003 122.151C181.105 121.658 185.04 120.299 188.943 118.952C189.81 118.69 190.642 118.325 191.421 117.865C194.121 116.096 194.722 112.48 195.226 109.295C195.787 105.744 196.537 102.2 197.867 98.8594C198.657 96.8701 199.679 94.8518 199.505 92.7212C199.284 89.8913 197.045 87.5976 196.49 84.8148C196.305 83.8846 196.313 82.926 196.516 81.9993C196.688 81.4472 196.784 80.8743 196.802 80.2963C196.74 79.1295 195.784 78.2309 194.885 77.4809C192.936 75.8527 190.923 74.3139 188.848 72.8646C188.743 72.1399 189.729 71.8282 190.175 71.2557C190.805 70.4477 190.153 69.165 189.196 68.7881C188.24 68.4113 187.167 68.6577 186.171 68.9077C186.236 68.3977 186.134 67.8803 185.881 67.4325C185.629 66.9848 185.238 66.6305 184.768 66.4225C184.298 66.2145 183.773 66.1638 183.272 66.2779C182.77 66.3921 182.319 66.665 181.986 67.0561C181.721 66.4493 181.298 65.9247 180.761 65.5372C180.225 65.1496 179.594 64.9134 178.935 64.853C176.532 64.6646 176.485 66.5017 174.949 67.5127C173.412 68.5236 172.144 67.1902 170.963 66.2191C170.746 66.768 170.677 67.3644 170.764 67.9483C170.85 68.5322 171.089 69.083 171.456 69.5454Z"
       fill="#3F3D56" />
    <path
       id="Vector_52"
       d="M261.952 191.831C261.952 191.831 261.63 192.599 261.035 193.711C260.136 195.423 259.042 197.024 257.774 198.483L257.676 198.588H257.089L236.167 198.78H235.667L235.606 198.708L231.547 193.892L230.018 192.077L229.957 192.001L229.826 191.849L229.754 191.762L229.66 191.649L226.685 188.12L227.772 183.591L229.623 175.96L229.67 175.775L230.033 174.326L230.29 173.238L231.153 169.695L234.109 157.502L239.363 160.219L244.904 170.003L247.878 175.257H249.509C249.817 175.257 250.524 175.851 251.234 176.536C251.487 176.779 251.741 177.036 251.959 177.261C252.603 177.927 253.114 178.5 253.114 178.5C253.114 178.5 255.756 178.558 256.466 180.638C256.503 180.738 256.533 180.841 256.557 180.946C256.792 181.763 257.099 182.559 257.473 183.323C257.941 184.341 258.528 185.497 259.122 186.653C260.227 188.772 261.351 190.791 261.764 191.523L261.814 191.613L261.952 191.831Z"
       fill="#5E3AEE"
       style="fill:#27a7ce;fill-opacity:1" />
    <path
       id="Vector_53"
       opacity="0.1"
       d="M230.826 175.47L230.79 175.989V176.025L230.729 176.858L230.247 183.565L229.663 191.646L229.497 193.921L229.134 198.791V198.853L190.363 199.215L126.738 199.904V200.208H126.688V199.904V199.802L126.851 194.599L127.162 184.431L127.43 175.811L127.456 174.952C127.472 174.434 127.593 173.924 127.812 173.454C128.032 172.985 128.345 172.564 128.732 172.22C129.119 171.875 129.573 171.612 130.065 171.449C130.557 171.285 131.077 171.223 131.594 171.267C133.304 171.412 135.525 171.59 138.181 171.778L139.268 171.858C154.607 172.923 182.953 174.3 211.557 172.583C212.158 172.55 212.763 172.514 213.368 172.47C217.804 172.191 222.235 171.832 226.623 171.383C227.178 171.325 227.739 171.389 228.266 171.571C228.793 171.753 229.274 172.049 229.675 172.437C230.075 172.825 230.386 173.296 230.585 173.817C230.784 174.338 230.866 174.896 230.826 175.452V175.47Z"
       fill="black" />
    <path
       id="Vector_54"
       d="M126.727 200.208V199.904L190.363 199.212L229.134 198.849H229.243V198.788L229.605 193.918L229.761 191.744L230.355 183.551L230.823 177.065V176.906C230.844 176.607 230.831 176.306 230.783 176.011C230.785 175.999 230.785 175.986 230.783 175.974C230.683 175.363 230.434 174.785 230.058 174.293C229.659 173.781 229.136 173.38 228.539 173.126C227.942 172.873 227.29 172.775 226.645 172.844C222.257 173.293 217.825 173.652 213.39 173.931C212.785 173.974 212.18 174.01 211.578 174.043C182.975 175.742 154.628 174.365 139.29 173.318L138.203 173.239C135.547 173.05 133.326 172.876 131.616 172.728C130.675 172.648 129.738 172.92 128.986 173.491C128.234 174.062 127.719 174.891 127.543 175.818C127.506 176.015 127.484 176.213 127.478 176.413L127.231 184.442L126.894 194.613L126.735 199.817V199.918V200.223L126.727 200.208Z"
       fill="#3F3D56" />
    <path
       id="Vector_55"
       opacity="0.1"
       d="M230.935 178.011L230.489 183.566L229.826 191.845L229.66 193.918L229.297 198.56L229.276 198.792V198.853L229.221 199.389L229.261 198.853H229.156L190.385 199.215L126.738 199.904V199.802L126.916 194.599L127.278 184.432L127.51 177.674C127.522 177.289 127.629 176.914 127.823 176.582C128.016 176.249 128.29 175.971 128.619 175.772C129.029 175.52 129.509 175.406 129.989 175.445C130.75 175.507 131.684 175.579 132.775 175.659C134.547 175.79 136.732 175.942 139.276 176.101C143.986 176.398 149.896 176.717 156.668 176.978C175.51 177.703 200.947 177.946 225.109 175.83C226.196 175.735 227.319 175.63 228.417 175.525C228.851 175.482 229.289 175.565 229.678 175.764C229.788 175.819 229.892 175.885 229.989 175.96C230.305 176.189 230.555 176.496 230.714 176.851C230.751 176.922 230.781 176.996 230.805 177.072C230.914 177.373 230.958 177.692 230.935 178.011Z"
       fill="black" />
    <path
       id="Vector_56"
       opacity="0.1"
       d="M108.016 182.971V184.127C108.016 184.547 107.897 184.959 107.673 185.314C107.448 185.67 107.127 185.954 106.748 186.134L92.2175 186.413C91.8312 186.236 91.5039 185.952 91.2745 185.594C91.0452 185.236 90.9235 184.82 90.924 184.395V183.308L108.016 182.971Z"
       fill="black" />
    <path
       id="Vector_57"
       d="M108.197 186.816L89.2644 187.178V184.036L108.197 183.674V186.816Z"
       fill="#3F3D56" />
    <path
       id="Vector_58"
       opacity="0.1"
       d="M108.197 186.816L89.2644 187.178V184.036L108.197 183.674V186.816Z"
       fill="black" />
    <path
       id="Vector_59"
       d="M108.922 186.816L89.9891 187.178V184.036L108.922 183.674V186.816Z"
       fill="#3F3D56" />
    <g
       id="Group_2"
       opacity="0.1">
      <path
         id="Vector_60"
         opacity="0.1"
         d="M171.604 68.3573C171.25 67.8973 171.015 67.3572 170.919 66.7847C170.832 67.3443 170.884 67.9169 171.072 68.4515C171.251 68.4349 171.43 68.4034 171.604 68.3573Z"
         fill="black" />
      <path
         id="Vector_61"
         opacity="0.1"
         d="M167.002 70.7631C166.934 70.3188 166.889 69.8713 166.868 69.4224C166.868 69.8681 166.868 70.3174 166.868 70.7667L167.002 70.7631Z"
         fill="black" />
      <path
         id="Vector_62"
         opacity="0.1"
         d="M196.534 82.8548C196.554 82.5319 196.597 82.211 196.664 81.8945C196.836 81.3434 196.933 80.7719 196.954 80.1951C196.946 80.0657 196.927 79.9371 196.896 79.811C196.835 80.1444 196.737 80.4778 196.664 80.8075C196.52 81.4797 196.476 82.1696 196.534 82.8548Z"
         fill="black" />
      <path
         id="Vector_63"
         opacity="0.1"
         d="M188.997 71.6582L189.392 71.9444C189.725 71.7036 190.036 71.4344 190.323 71.14C190.46 70.9514 190.544 70.7303 190.568 70.4989C190.592 70.2674 190.555 70.0337 190.461 69.821C190.425 69.9038 190.379 69.9817 190.323 70.0529C189.878 70.6255 188.892 70.9407 188.997 71.6582Z"
         fill="black" />
      <path
         id="Vector_64"
         opacity="0.1"
         d="M159.223 75.144C159.091 75.4083 158.985 75.6851 158.908 75.9702C159.474 75.6538 160.085 75.423 160.719 75.2854L159.223 75.144Z"
         fill="black" />
      <path
         id="Vector_65"
         opacity="0.1"
         d="M164.22 71.2016C163.982 71.0704 163.754 70.9214 163.538 70.7559C163.529 70.8992 163.54 71.0431 163.571 71.1834C163.787 71.1731 164.004 71.1792 164.22 71.2016Z"
         fill="black" />
      <path
         id="Vector_66"
         opacity="0.1"
         d="M199.646 92.551C199.498 94.3084 198.679 96.0006 198.016 97.6674C196.686 101.008 195.936 104.552 195.374 108.107C194.871 111.292 194.287 114.908 191.57 116.673C190.793 117.136 189.962 117.502 189.095 117.76C185.189 119.111 181.25 120.466 177.137 120.959C173.025 121.452 168.709 121.021 165.122 118.97C164.082 118.427 163.189 117.64 162.52 116.676C161.553 115.143 161.535 113.223 161.071 111.469C160.675 110.167 160.191 108.893 159.621 107.657C158.821 105.708 158.205 103.671 157.592 101.668C157.025 99.8052 156.458 97.9416 155.893 96.0767C155.707 95.5157 155.569 94.9399 155.48 94.3555C155.338 95.2831 155.614 96.2542 155.893 97.1637C156.458 99.031 157.025 100.895 157.592 102.755C158.205 104.773 158.821 106.795 159.621 108.744C160.191 109.98 160.675 111.254 161.071 112.556C161.527 114.31 161.545 116.23 162.52 117.763C163.189 118.727 164.082 119.514 165.122 120.057C168.709 122.108 173.036 122.539 177.137 122.046C181.239 121.553 185.174 120.198 189.095 118.847C189.962 118.589 190.793 118.223 191.57 117.76C194.269 115.995 194.871 112.379 195.374 109.194C195.936 105.639 196.686 102.095 198.016 98.7544C198.806 96.7688 199.828 94.7505 199.654 92.6163C199.654 92.5945 199.646 92.5728 199.646 92.551Z"
         fill="black" />
      <path
         id="Vector_67"
         opacity="0.1"
         d="M156.277 91.1488C156.277 91.1488 156.277 91.1235 156.277 91.109C156.342 90.47 156.286 89.8245 156.11 89.2067C156.038 88.809 155.991 88.4072 155.969 88.0037C155.927 88.7699 155.975 89.5384 156.11 90.2937C156.168 90.5763 156.233 90.8626 156.277 91.1488Z"
         fill="black" />
      <path
         id="Vector_68"
         opacity="0.1"
         d="M157.382 82.286C157.661 81.8178 157.977 81.3731 158.328 80.9562C157.665 81.5903 156.44 81.025 156.183 80.1445C156.088 80.5007 156.088 80.8754 156.183 81.2316C156.272 81.4975 156.43 81.735 156.641 81.9202C156.851 82.1054 157.107 82.2316 157.382 82.286Z"
         fill="black" />
    </g>
    <path
       id="Vector_69"
       opacity="0.1"
       d="M247.882 175.253C247.882 175.253 249.031 179.42 247.882 183.044C246.733 186.667 247.882 175.253 247.882 175.253Z"
       fill="black" />
    <path
       id="Vector_70"
       opacity="0.1"
       d="M252.774 179.503C252.774 179.503 253.256 184.794 252.169 185.732C251.082 186.671 252.774 179.503 252.774 179.503Z"
       fill="black" />
    <path
       id="Vector_71"
       d="M72.1036 124.234L108.922 123.872"
       stroke="#5E3AEE"
       stroke-width="0.724696"
       stroke-miterlimit="10" />
    <path
       id="Vector_72"
       d="M72.1036 128.753L108.922 128.394"
       stroke="#5E3AEE"
       stroke-width="0.724696"
       stroke-miterlimit="10" />
    <path
       id="Vector_73"
       d="M72.1036 133.275L108.922 132.913"
       stroke="#5E3AEE"
       stroke-width="0.724696"
       stroke-miterlimit="10" />
  </g>
  <defs
     id="defs81">
    <clipPath
       id="clip0">
      <rect
         width="377.32"
         height="200.802"
         fill="white"
         id="rect78" />
    </clipPath>
  </defs>
</svg>
